<svg width="28" height="24" viewBox="0 0 28 24" fill="none" xmlns="http://www.w3.org/2000/svg">
<path d="M5.37125 0.256H8.64725L8.44325 1.552H7.62725L6.36725 10H4.73525L5.99525 1.552H5.17925L5.37125 0.256ZM11.6045 3.868L11.4005 5.284H10.0685L10.3205 3.58C10.3325 3.472 10.3445 3.412 10.3445 3.4C10.3445 3.268 10.2725 3.196 10.1525 3.196C9.9485 3.196 9.8885 3.328 9.8525 3.58L8.8925 10H7.4885L8.6765 2.068H10.0805L10.0205 2.392C10.3565 2.14 10.6325 2.008 10.8845 2.008C11.4125 2.008 11.7125 2.344 11.7125 2.956C11.7125 3.196 11.6645 3.496 11.6045 3.868ZM15.4377 3.544L14.4777 10H13.0737L13.1217 9.676C12.7977 9.916 12.4857 10.048 12.1737 10.048C11.6337 10.048 11.3457 9.736 11.3457 9.148C11.3457 8.92 11.3817 8.632 11.4417 8.26L11.6457 6.904C11.7297 6.316 11.9217 6.004 12.5097 5.692L13.8177 4.996L14.0337 3.52C14.0457 3.424 14.0577 3.34 14.0577 3.304C14.0577 3.184 13.9977 3.124 13.8657 3.124C13.6617 3.124 13.6017 3.268 13.5657 3.52L13.3737 4.732H11.9697L12.1497 3.544C12.3417 2.284 12.6897 2.008 14.0217 2.008C15.0417 2.008 15.4977 2.176 15.4977 2.956C15.4977 3.04 15.4857 3.244 15.4377 3.544ZM13.6137 6.34L13.3377 6.484C13.0977 6.604 13.0617 6.796 13.0377 6.988L12.8097 8.536C12.7977 8.596 12.7857 8.656 12.7857 8.692C12.7857 8.872 12.8457 8.944 12.9897 8.944C13.2057 8.944 13.2537 8.776 13.2897 8.536L13.6137 6.34ZM19.3986 3.544L19.1466 5.296H17.7306L17.9946 3.52C18.0066 3.4 18.0186 3.34 18.0186 3.328C18.0186 3.208 17.9466 3.124 17.8266 3.124C17.6106 3.124 17.5626 3.268 17.5266 3.52L16.7706 8.536C16.7586 8.62 16.7586 8.68 16.7586 8.692C16.7586 8.872 16.8066 8.944 16.9626 8.944C17.1666 8.944 17.2146 8.776 17.2506 8.536L17.5386 6.592H18.9426L18.6546 8.524C18.4626 9.796 18.1026 10.048 16.7586 10.048C15.7266 10.048 15.3066 9.88 15.3066 9.1C15.3066 9.004 15.3186 8.812 15.3666 8.524L16.1106 3.544C16.3026 2.284 16.6506 2.008 17.9826 2.008C19.0026 2.008 19.4586 2.176 19.4586 2.956C19.4586 3.04 19.4466 3.232 19.3986 3.544ZM20.6124 0.256H21.9324L21.2364 4.96H21.3324L22.3164 2.056H23.6604L22.3644 5.548L22.6404 10H21.2004L21.1404 6.244H21.0444L20.4804 10H19.1604L20.6124 0.256ZM1.51723 12.256H3.16123L1.70923 22H0.0652344L1.51723 12.256ZM6.73733 15.868L5.82533 22H4.42133L5.36933 15.58C5.38133 15.472 5.39333 15.412 5.39333 15.4C5.39333 15.268 5.32133 15.196 5.20133 15.196C4.99733 15.196 4.93733 15.328 4.90133 15.58L3.94133 22H2.53733L3.72533 14.068H5.12933L5.06933 14.392C5.39333 14.152 5.66933 14.008 5.95733 14.008C6.53333 14.008 6.83333 14.344 6.83333 14.992C6.83333 15.196 6.79733 15.484 6.73733 15.868ZM6.96317 19.084H8.36717L8.15117 20.56C8.13917 20.644 8.12717 20.704 8.12717 20.728C8.12717 20.848 8.21117 20.944 8.33117 20.944C8.53517 20.944 8.59517 20.812 8.63117 20.56L8.83517 19.156C8.85917 19.036 8.85917 18.976 8.85917 18.952C8.85917 18.784 8.75117 18.664 8.48717 18.508L7.85117 18.136C7.43117 17.884 7.26317 17.632 7.26317 17.248C7.26317 17.092 7.28717 16.912 7.32317 16.696L7.47917 15.664C7.69517 14.224 8.07917 14.008 9.44717 14.008C10.4072 14.008 10.8392 14.152 10.8392 14.92C10.8392 15.016 10.8152 15.304 10.7432 15.808L10.6112 16.72H9.20717L9.38717 15.496C9.39917 15.388 9.41117 15.328 9.41117 15.316C9.41117 15.196 9.32717 15.112 9.19517 15.112C9.00317 15.112 8.94317 15.268 8.90717 15.496L8.75117 16.564C8.72717 16.684 8.72717 16.768 8.72717 16.78C8.72717 17.044 8.94317 17.116 9.21917 17.296L9.86717 17.704C10.1792 17.896 10.3232 18.16 10.3232 18.508C10.3232 18.676 10.2872 18.844 10.2632 19.012L10.0832 20.248C9.85517 21.748 9.66317 22.048 8.13917 22.048C7.14317 22.048 6.69917 21.904 6.69917 21.148C6.69917 21.052 6.72317 20.752 6.79517 20.248L6.96317 19.084ZM11.9932 12.256H13.3972L13.2292 13.396H11.8252L11.9932 12.256ZM11.7292 14.056H13.1332L11.9452 22H10.5412L11.7292 14.056ZM15.6724 14.392L15.7324 14.068H17.1364L15.8764 22.492C15.7084 23.62 15.2644 23.86 14.2324 23.86H12.4324L12.6004 22.756H14.0164C14.0884 22.756 14.1364 22.744 14.1604 22.744C14.3884 22.744 14.4484 22.624 14.4844 22.408L14.5924 21.664C14.2684 21.916 13.9684 22.036 13.7044 22.036C13.1284 22.036 12.8284 21.7 12.8284 21.064C12.8284 20.872 12.8644 20.572 12.9244 20.176L13.5724 15.868C13.7404 14.716 13.9804 14.008 14.9284 14.008C15.1804 14.008 15.4204 14.14 15.6724 14.392ZM15.5044 15.592C15.5164 15.496 15.5164 15.436 15.5164 15.424C15.5164 15.28 15.4444 15.208 15.3124 15.208C15.1084 15.208 15.0604 15.352 15.0244 15.592L14.2924 20.452C14.2804 20.56 14.2684 20.608 14.2684 20.608C14.2684 20.764 14.3284 20.836 14.4724 20.836C14.6764 20.836 14.7364 20.692 14.7724 20.452L15.5044 15.592ZM18.2042 12.256H19.6082L19.2842 14.392C19.6082 14.152 19.8722 14.008 20.1602 14.008C20.7362 14.008 21.0482 14.356 21.0482 15.016C21.0482 15.22 21.0002 15.496 20.9402 15.868L20.0282 22H18.6242L19.5842 15.58C19.5962 15.472 19.6082 15.412 19.6082 15.4C19.6082 15.268 19.5242 15.196 19.4042 15.196C19.2002 15.196 19.1402 15.328 19.1042 15.58L18.1442 22H16.7402L18.2042 12.256ZM22.354 12.256H23.758L23.494 14.056H24.046L23.89 15.16H23.326L22.522 20.488C22.522 20.512 22.51 20.56 22.51 20.608C22.51 20.62 22.51 20.656 22.51 20.728C22.51 20.824 22.63 20.92 22.858 20.92H23.026L22.858 22.012H22.294C21.466 22.012 21.046 21.796 21.046 21.232C21.046 20.98 21.082 20.692 21.13 20.392L21.922 15.16H21.55L21.706 14.056H22.078L22.354 12.256ZM23.7327 19.084H25.1367L24.9207 20.56C24.9087 20.644 24.8967 20.704 24.8967 20.728C24.8967 20.848 24.9807 20.944 25.1007 20.944C25.3047 20.944 25.3647 20.812 25.4007 20.56L25.6047 19.156C25.6287 19.036 25.6287 18.976 25.6287 18.952C25.6287 18.784 25.5207 18.664 25.2567 18.508L24.6207 18.136C24.2007 17.884 24.0327 17.632 24.0327 17.248C24.0327 17.092 24.0567 16.912 24.0927 16.696L24.2487 15.664C24.4647 14.224 24.8487 14.008 26.2167 14.008C27.1767 14.008 27.6087 14.152 27.6087 14.92C27.6087 15.016 27.5847 15.304 27.5127 15.808L27.3807 16.72H25.9767L26.1567 15.496C26.1687 15.388 26.1807 15.328 26.1807 15.316C26.1807 15.196 26.0967 15.112 25.9647 15.112C25.7727 15.112 25.7127 15.268 25.6767 15.496L25.5207 16.564C25.4967 16.684 25.4967 16.768 25.4967 16.78C25.4967 17.044 25.7127 17.116 25.9887 17.296L26.6367 17.704C26.9487 17.896 27.0927 18.16 27.0927 18.508C27.0927 18.676 27.0567 18.844 27.0327 19.012L26.8527 20.248C26.6247 21.748 26.4327 22.048 24.9087 22.048C23.9127 22.048 23.4687 21.904 23.4687 21.148C23.4687 21.052 23.4927 20.752 23.5647 20.248L23.7327 19.084Z" fill="white"/>
</svg>
