<svg id="Layer_18" data-name="Layer 18" xmlns="http://www.w3.org/2000/svg" viewBox="0 0 2000 2000"><defs><style>.cls-1{fill:#900;}</style></defs><title>MArtboard 1_Red</title><path class="cls-1" d="M151,1767.7V1423.28h92.12V578.64H151V232H642.4L1000,826.55,1355.4,232H1849V578.64h-92.12v844.64H1849V1767.7H1243.52V1423.28h89.93V1024L1000,1579,664.36,1024v399.28h92.12V1767.7Zm568.19-37.29v-272H627v-555l373,625.24,370.74-647.17v577h-92.12v272h533.09v-272h-92.13v-917h92.13v-272H1364.18L1000,879.22,633.62,269.32H188.29v272h89.93v917H188.29v272Zm-482.65-48.27V1506.65h90V493.11h-90V317.59H576.6l423.4,702,421.21-702h344.42V493.11h-94.32V1506.65h94.32v175.49H1326.89V1506.65H1419V734.4l-419,699.86L581,734.4v772.25h92.12v175.49Z"/></svg>