<?xml version="1.0" encoding="UTF-8" standalone="no"?>
<!-- Created with Inkscape (http://www.inkscape.org/) -->

<svg
   xmlns:dc="http://purl.org/dc/elements/1.1/"
   xmlns:cc="http://creativecommons.org/ns#"
   xmlns:rdf="http://www.w3.org/1999/02/22-rdf-syntax-ns#"
   xmlns:svg="http://www.w3.org/2000/svg"
   xmlns="http://www.w3.org/2000/svg"
   xmlns:inkscape="http://www.inkscape.org/namespaces/inkscape"
   version="1.1"
   width="1080"
   height="1260"
   id="svg2"
   xml:space="preserve"><metadata
     id="metadata8"><rdf:RDF><cc:Work
         rdf:about=""><dc:format>image/svg+xml</dc:format><dc:type
           rdf:resource="http://purl.org/dc/dcmitype/StillImage" /></cc:Work></rdf:RDF></metadata><defs
     id="defs6"><clipPath
       id="clipPath16"><path
         d="m 0,1008 864,0 L 864,0 0,0 0,1008 z"
         inkscape:connector-curvature="0"
         id="path18" /></clipPath></defs><g
     transform="matrix(1.25,0,0,-1.25,0,1260)"
     id="g10"><g
       id="g12"><g
         clip-path="url(#clipPath16)"
         id="g14"><g
           transform="translate(520.9802,694.4184)"
           id="g20"><path
             d="m 0,0 c 0,0 28.686,-7.92 62.854,4.895 0,0 -3.961,-11.546 -0.189,-31.028 3.772,-19.481 10.009,-51.69 10.009,-51.69 0,0 6.322,-35.427 -13.058,-48.072 -19.38,-12.647 -30.958,-25.399 -30.958,-25.399 0,0 -15.437,7.522 -38.136,12.019 -6.042,1.197 -10.998,4.572 -15.017,8.879 -2.853,-2.085 -6.046,-3.829 -9.626,-5.187 1.144,-2.128 3.039,-4.578 0.911,-6.47 -3.487,-3.101 -7.738,-5.827 -10.604,-6.679 1.056,-20.158 -6.447,-38.17 -18.607,-53.925 -1.177,-1.526 -0.238,-2.486 -0.461,-4.628 -0.138,-1.324 -0.969,-2.456 -1.109,-3.774 -0.155,-1.448 0.484,-2.824 0.075,-4.273 -0.896,-3.177 1.384,-5.389 2.311,-8.424 2.654,-8.685 4.319,-20.805 5.594,-29.72 0.979,-6.845 1.666,-13.952 3.928,-20.522 1.928,-5.601 4.49,-11.678 3.187,-17.739 -0.383,-1.221 -2.124,0.185 -2.607,-0.162 4.994,-11.409 4.803,-24.878 4.822,-34.473 0.007,-3.558 -0.641,-8.265 0.683,-11.631 0.827,-2.106 4.714,-5.146 4.61,-12.781 5.787,-3.944 10.908,-19.14 13.769,-35.461 1.425,-8.136 -0.705,-16.743 0.987,-24.578 1.173,-5.432 4.559,-10.178 5.608,-15.562 0.289,-1.484 -0.75,-3.129 -0.033,-4.543 0.695,-1.373 2.186,-2.305 3.27,-3.344 2.555,-2.448 4.054,-5.792 6.531,-8.319 1.072,-1.096 2.608,-1.669 3.773,-2.664 1.106,-0.944 1.848,-2.052 2.869,-2.498 0.965,-0.42 5.158,-0.58 5.711,-4.604 0.285,-2.069 4.373,-3.646 2.355,-7.048 -4.487,-7.563 -31.033,-6.844 -34.465,-4.72 -2.344,1.451 -3.722,4.013 -5.551,5.995 -4.997,5.414 -5.971,5.488 -12.137,8.576 -2.093,1.05 -5.011,2.939 -4.468,5.723 0.263,1.353 1.6,2.323 1.733,3.681 0.129,1.328 -0.669,2.539 -0.872,3.821 -0.978,6.174 4.521,8.54 0.529,22.299 -3.084,10.634 -19.968,31.905 -20.492,42.119 -0.383,7.433 1.174,13.862 -1.673,20.867 -8.106,15.435 -24.423,28.644 -33.53,64.733 -2.214,-0.525 -3.34,-1.053 -6.242,-0.89 -4.685,-14.871 -18.798,-35.552 -28.762,-47.121 -2.788,-3.236 -4.119,-5.65 -4.459,-9.957 -0.301,-3.805 -2.584,-4.962 -4.376,-7.947 -1.573,-2.624 -0.469,-6.457 -0.083,-9.253 2.057,-14.914 -14.186,-32.44 -18.581,-44.778 -2.461,-6.91 -3.552,-13.572 -1.509,-20.687 0.932,-3.244 3.424,-8.206 4.2,-11.497 4.729,-6.582 -1.829,-9.385 -7.053,-11.119 -3.285,-1.089 -6.565,-2.747 -9.597,-4.405 -5.409,-2.961 -6.922,-7.18 -12.459,-9.963 -7.162,-4.316 -37.28,-5.469 -33.297,5.575 -3.54,5.555 2.398,6.434 4.1,6.534 2.191,0.129 7.945,5.108 11.739,7.48 0.175,0.108 7.387,9.418 10.356,11.737 -5.551,4.433 0.857,12.356 2.635,17.13 2.805,7.532 3.901,16.239 3.663,24.243 -0.13,4.371 -0.619,8.772 -0.017,13.128 1.24,9 4.66,24.902 14.142,28.3 1.64,4.271 0.328,9.979 3.236,13.703 1.01,1.292 2.935,2.612 3.325,4.278 0.11,0.469 -0.113,4.938 0.032,6.395 0.584,5.855 0.87,18.599 3.742,28.235 -6.081,-0.636 -11.744,-3.166 -17.142,-5.946 -4.394,-2.263 -9.944,-2.417 -13.542,1.521 -3.843,4.209 -0.716,9.889 1.804,13.914 2.925,4.675 5.33,8.117 5.795,13.787 -6.513,-2.861 -11.124,-6.987 -16.109,-11.934 -2.787,-2.767 -8.052,-8.424 -11.987,-4.238 -3.899,4.147 -2.449,11.881 -2.762,16.995 -0.653,10.661 -6.429,14.435 -9.669,16.4 14.629,9.522 26.269,43.408 35.74,58.729 -12.583,7.175 -20.044,19.47 -29.969,29.303 -2.163,-0.673 -3.995,0.197 -5.873,1.192 -1.23,0.651 -1.362,1.368 -2.371,0.59 -4.433,-3.419 -13.135,1.537 -12.751,7.443 0.194,2.991 1.039,3.246 0.557,4.352 -1.025,2.358 -1.037,7.289 2.457,7.512 -0.694,2.357 1.856,4.529 1.296,6.4 -2.135,7.134 3.425,5.504 4.222,6.072 -2.098,1.899 -7.579,3.944 -8.742,6.696 -1.042,2.47 0.51,5.982 3.499,6.714 2.186,0.536 6.168,-0.382 6.313,-3.065 0.122,-2.262 0.197,-2.833 2.226,-4.005 l 57.683,176.865 21.846,18.513 2.974,-27.636 -72.099,-172.077 c 1.129,-0.51 2.617,-1.325 3.732,-0.76 2.201,1.113 2.815,4.465 7.917,0.841 2.746,-1.949 -0.521,-12.694 -5.782,-9.231 1.477,-3.033 2.03,-6.452 3.685,-9.401 4.357,-7.765 15.493,-8.981 22.954,-12.131 -0.154,6.591 1.036,11.838 3.995,15.317 -1.898,1.548 -1.158,4.976 -0.908,7.033 2.77,22.824 19.374,39.326 41.754,44.024 -4.426,15.016 -18.758,23.96 -23.8,38.59 -2.483,7.205 -2.974,14.955 -1.729,22.457 4.322,26.028 34.932,44.479 60.082,38.703 -2.233,-7.43 -4.128,-18.958 -5.917,-26.494 -4.648,-0.819 -2.382,-5.786 2.442,-4.884 -0.003,-0.966 0.381,-2.755 0.677,-3.421 22.891,-3.704 29.051,-23.508 30.675,-31.489 0.911,-1.643 2.013,-2.395 2.814,-3.882 1.753,-3.256 0.089,-4.328 -2.191,-5.691 0.326,-0.427 2.588,-2.122 1.8,-3.959 2.695,-0.617 2.287,-3.516 0.855,-7.721 0.386,-1.418 0.868,-3.419 2.452,-3.313 2.628,0.176 7.534,-1.072 7.981,-4.234 1.553,-0.198 6.091,0.305 7.631,-2.838 1.123,-2.294 3.802,-1.878 5.688,-3.156 1.192,-0.805 1.005,-2.126 2.435,-0.941 1.987,1.644 6.015,2.68 7.333,0.275 3.631,2.237 7.774,4.892 12.274,4.781 l -9.054,46.756 c -3.772,19.481 -11.758,28.714 -11.758,28.714 C -24.823,-18.281 0,0 0,0 z"
             inkscape:connector-curvature="0"
             id="path22"
             style="fill:none;stroke:#ffffff;stroke-width:4.24300003;stroke-linecap:butt;stroke-linejoin:round;stroke-miterlimit:10;stroke-opacity:1;stroke-dasharray:none" /></g><g
           transform="translate(520.9802,694.4184)"
           id="g24"><path
             d="m 0,0 c 0,0 28.686,-7.92 62.854,4.895 0,0 -3.961,-11.546 -0.189,-31.028 3.772,-19.481 10.009,-51.69 10.009,-51.69 0,0 6.322,-35.427 -13.058,-48.072 -19.38,-12.647 -30.958,-25.399 -30.958,-25.399 0,0 -15.437,7.522 -38.136,12.019 -6.042,1.197 -10.998,4.572 -15.017,8.879 -2.853,-2.085 -6.046,-3.829 -9.626,-5.187 1.144,-2.128 3.039,-4.578 0.911,-6.47 -3.487,-3.101 -7.738,-5.827 -10.604,-6.679 1.056,-20.158 -6.447,-38.17 -18.607,-53.925 -1.177,-1.526 -0.238,-2.486 -0.461,-4.628 -0.138,-1.324 -0.969,-2.456 -1.109,-3.774 -0.155,-1.448 0.484,-2.824 0.075,-4.273 -0.896,-3.177 1.384,-5.389 2.311,-8.424 2.654,-8.685 4.319,-20.805 5.594,-29.72 0.979,-6.845 1.666,-13.952 3.928,-20.522 1.928,-5.601 4.49,-11.678 3.187,-17.739 -0.383,-1.221 -2.124,0.185 -2.607,-0.162 4.994,-11.409 4.803,-24.878 4.822,-34.473 0.007,-3.558 -0.641,-8.265 0.683,-11.631 0.827,-2.106 4.714,-5.146 4.61,-12.781 5.787,-3.944 10.908,-19.14 13.769,-35.461 1.425,-8.136 -0.705,-16.743 0.987,-24.578 1.173,-5.432 4.559,-10.178 5.608,-15.562 0.289,-1.484 -0.75,-3.129 -0.033,-4.543 0.695,-1.373 2.186,-2.305 3.27,-3.344 2.555,-2.448 4.054,-5.792 6.531,-8.319 1.072,-1.096 2.608,-1.669 3.773,-2.664 1.106,-0.944 1.848,-2.052 2.869,-2.498 0.965,-0.42 5.158,-0.58 5.711,-4.604 0.285,-2.069 4.373,-3.646 2.355,-7.048 -4.487,-7.563 -31.033,-6.844 -34.465,-4.72 -2.344,1.451 -3.722,4.013 -5.551,5.995 -4.997,5.414 -5.971,5.488 -12.137,8.576 -2.093,1.05 -5.011,2.939 -4.468,5.723 0.263,1.353 1.6,2.323 1.733,3.681 0.129,1.328 -0.669,2.539 -0.872,3.821 -0.978,6.174 4.521,8.54 0.529,22.299 -3.084,10.634 -19.968,31.905 -20.492,42.119 -0.383,7.433 1.174,13.862 -1.673,20.867 -8.106,15.435 -24.423,28.644 -33.53,64.733 -2.214,-0.525 -3.34,-1.053 -6.242,-0.89 -4.685,-14.871 -18.798,-35.552 -28.762,-47.121 -2.788,-3.236 -4.119,-5.65 -4.459,-9.957 -0.301,-3.805 -2.584,-4.962 -4.376,-7.947 -1.573,-2.624 -0.469,-6.457 -0.083,-9.253 2.057,-14.914 -14.186,-32.44 -18.581,-44.778 -2.461,-6.91 -3.552,-13.572 -1.509,-20.687 0.932,-3.244 3.424,-8.206 4.2,-11.497 4.729,-6.582 -1.829,-9.385 -7.053,-11.119 -3.285,-1.089 -6.565,-2.747 -9.597,-4.405 -5.409,-2.961 -6.922,-7.18 -12.459,-9.963 -7.162,-4.316 -37.28,-5.469 -33.297,5.575 -3.54,5.555 2.398,6.434 4.1,6.534 2.191,0.129 7.945,5.108 11.739,7.48 0.175,0.108 7.387,9.418 10.356,11.737 -5.551,4.433 0.857,12.356 2.635,17.13 2.805,7.532 3.901,16.239 3.663,24.243 -0.13,4.371 -0.619,8.772 -0.017,13.128 1.24,9 4.66,24.902 14.142,28.3 1.64,4.271 0.328,9.979 3.236,13.703 1.01,1.292 2.935,2.612 3.325,4.278 0.11,0.469 -0.113,4.938 0.032,6.395 0.584,5.855 0.87,18.599 3.742,28.235 -6.081,-0.636 -11.744,-3.166 -17.142,-5.946 -4.394,-2.263 -9.944,-2.417 -13.542,1.521 -3.843,4.209 -0.716,9.889 1.804,13.914 2.925,4.675 5.33,8.117 5.795,13.787 -6.513,-2.861 -11.124,-6.987 -16.109,-11.934 -2.787,-2.767 -8.052,-8.424 -11.987,-4.238 -3.899,4.147 -2.449,11.881 -2.762,16.995 -0.653,10.661 -6.429,14.435 -9.669,16.4 14.629,9.522 26.269,43.408 35.74,58.729 -12.583,7.175 -20.044,19.47 -29.969,29.303 -2.163,-0.673 -3.995,0.197 -5.873,1.192 -1.23,0.651 -1.362,1.368 -2.371,0.59 -4.433,-3.419 -13.135,1.537 -12.751,7.443 0.194,2.991 1.039,3.246 0.557,4.352 -1.025,2.358 -1.037,7.289 2.457,7.512 -0.694,2.357 1.856,4.529 1.296,6.4 -2.135,7.134 3.425,5.504 4.222,6.072 -2.098,1.899 -7.579,3.944 -8.742,6.696 -1.042,2.47 0.51,5.982 3.499,6.714 2.186,0.536 6.168,-0.382 6.313,-3.065 0.122,-2.262 0.197,-2.833 2.226,-4.005 l 57.683,176.865 21.846,18.513 2.974,-27.636 -72.099,-172.077 c 1.129,-0.51 2.617,-1.325 3.732,-0.76 2.201,1.113 2.815,4.465 7.917,0.841 2.746,-1.949 -0.521,-12.694 -5.782,-9.231 1.477,-3.033 2.03,-6.452 3.685,-9.401 4.357,-7.765 15.493,-8.981 22.954,-12.131 -0.154,6.591 1.036,11.838 3.995,15.317 -1.898,1.548 -1.158,4.976 -0.908,7.033 2.77,22.824 19.374,39.326 41.754,44.024 -4.426,15.016 -18.758,23.96 -23.8,38.59 -2.483,7.205 -2.974,14.955 -1.729,22.457 4.322,26.028 34.932,44.479 60.082,38.703 -2.233,-7.43 -4.128,-18.958 -5.917,-26.494 -4.648,-0.819 -2.382,-5.786 2.442,-4.884 -0.003,-0.966 0.381,-2.755 0.677,-3.421 22.891,-3.704 29.051,-23.508 30.675,-31.489 0.911,-1.643 2.013,-2.395 2.814,-3.882 1.753,-3.256 0.089,-4.328 -2.191,-5.691 0.326,-0.427 2.588,-2.122 1.8,-3.959 2.695,-0.617 2.287,-3.516 0.855,-7.721 0.386,-1.418 0.868,-3.419 2.452,-3.313 2.628,0.176 7.534,-1.072 7.981,-4.234 1.553,-0.198 6.091,0.305 7.631,-2.838 1.123,-2.294 3.802,-1.878 5.688,-3.156 1.192,-0.805 1.005,-2.126 2.435,-0.941 1.987,1.644 6.015,2.68 7.333,0.275 3.631,2.237 7.774,4.892 12.274,4.781 l -9.054,46.756 c -3.772,19.481 -11.758,28.714 -11.758,28.714 C -24.823,-18.281 0,0 0,0"
             inkscape:connector-curvature="0"
             id="path26"
             style="fill:#1e4b9b;fill-opacity:1;fill-rule:evenodd;stroke:none" /></g><g
           transform="translate(283.4517,564.5253)"
           id="g28"><path
             d="M 0,0 C -1.7,-3.601 57.53,176.609 57.53,176.609 L 75.412,191.763 77.836,169.235 5.755,-2.801 3.673,-1.788 62.509,154.202 67.613,170.615 60.702,154.627 1.921,-0.935 0,0 z"
             inkscape:connector-curvature="0"
             id="path30"
             style="fill:#ffffff;fill-opacity:1;fill-rule:evenodd;stroke:none" /></g><g
           transform="translate(397.4254,663.5815)"
           id="g32"><path
             d="m 0,0 0.813,-1.442 c -21.848,-2.669 -24.976,-18.975 -25.742,-23.491 -3.315,14.199 6.074,25.77 19.818,28.605 C -5.047,3.685 -4.336,0.56 0,0"
             inkscape:connector-curvature="0"
             id="path34"
             style="fill:#ffffff;fill-opacity:1;fill-rule:evenodd;stroke:none" /></g><g
           transform="translate(397.4254,663.5815)"
           id="g36"><path
             d="m 0,0 0.813,-1.442 c -21.848,-2.669 -24.976,-18.975 -25.742,-23.491 -3.315,14.199 6.074,25.77 19.818,28.605 C -5.047,3.685 -4.336,0.56 0,0 z"
             inkscape:connector-curvature="0"
             id="path38"
             style="fill:none;stroke:#1e4b9b;stroke-width:1.03299999;stroke-linecap:butt;stroke-linejoin:miter;stroke-miterlimit:10;stroke-opacity:1;stroke-dasharray:none" /></g><g
           transform="translate(397.4254,663.5815)"
           id="g40"><path
             d="m 0,0 0.813,-1.442 c -21.848,-2.669 -24.976,-18.975 -25.742,-23.491 -3.315,14.199 6.074,25.77 19.818,28.605 C -5.047,3.685 -4.336,0.56 0,0"
             inkscape:connector-curvature="0"
             id="path42"
             style="fill:#f9b00f;fill-opacity:1;fill-rule:evenodd;stroke:none" /></g><g
           transform="translate(404.1392,659.2657)"
           id="g44"><path
             d="m 0,0 c 0.032,-4.621 -1.253,-8.983 -2.079,-12.745 -5.637,-1.516 -22.559,-9.749 -22.456,-14.909 0.028,-5.492 8.947,-9.593 13.587,-6.316 1.92,1.355 4.138,4.209 6.478,2.186 4.606,-3.98 7.418,-13.871 8.828,-14.925 2.659,-0.419 6.614,-0.263 8.437,0.888 -2.716,9.588 -18.488,16.151 -15.318,21.31 0.455,-1.038 1.385,-1.35 1.997,-1.624 -0.154,4.87 2.995,6.562 5.773,3.622 -1.19,-5.078 -2.031,-9.274 2.075,-13.186 1.748,-1.664 3.707,-3.117 5.285,-4.954 1.711,-1.99 2.124,-4.279 2.852,-6.722 -4.125,-0.833 -10.312,-1.424 -13.321,-1.554 -0.579,4.044 -2.283,10.021 -6.749,11.331 -1.454,0.425 -6.001,0.067 -4.353,-2.44 4.431,-6.744 10.136,-12.355 5.662,-22.232 -1.684,-3.718 -8.727,-3.541 -11.874,-1.754 0.589,3.527 1.978,6.733 0.977,10.357 -0.968,3.511 -3.796,5.812 -6.462,8.073 -5.874,4.983 -10.044,10.73 -9.641,18.771 0.384,7.657 2.147,14.903 7.931,20.329 C -17.002,-1.456 -7.992,2.054 0,0"
             inkscape:connector-curvature="0"
             id="path46"
             style="fill:#ffffff;fill-opacity:1;fill-rule:evenodd;stroke:none" /></g><g
           transform="translate(404.1392,659.2657)"
           id="g48"><path
             d="m 0,0 c 0.032,-4.621 -1.253,-8.983 -2.079,-12.745 -5.637,-1.516 -22.559,-9.749 -22.456,-14.909 0.028,-5.492 8.947,-9.593 13.587,-6.316 1.92,1.355 4.138,4.209 6.478,2.186 4.606,-3.98 7.418,-13.871 8.828,-14.925 2.659,-0.419 6.614,-0.263 8.437,0.888 -2.716,9.588 -18.488,16.151 -15.318,21.31 0.455,-1.038 1.385,-1.35 1.997,-1.624 -0.154,4.87 2.995,6.562 5.773,3.622 -1.19,-5.078 -2.031,-9.274 2.075,-13.186 1.748,-1.664 3.707,-3.117 5.285,-4.954 1.711,-1.99 2.124,-4.279 2.852,-6.722 -4.125,-0.833 -10.312,-1.424 -13.321,-1.554 -0.579,4.044 -2.283,10.021 -6.749,11.331 -1.454,0.425 -6.001,0.067 -4.353,-2.44 4.431,-6.744 10.136,-12.355 5.662,-22.232 -1.684,-3.718 -8.727,-3.541 -11.874,-1.754 0.589,3.527 1.978,6.733 0.977,10.357 -0.968,3.511 -3.796,5.812 -6.462,8.073 -5.874,4.983 -10.044,10.73 -9.641,18.771 0.384,7.657 2.147,14.903 7.931,20.329 C -17.002,-1.456 -7.992,2.054 0,0 z"
             inkscape:connector-curvature="0"
             id="path50"
             style="fill:none;stroke:#1e4b9b;stroke-width:1.03299999;stroke-linecap:butt;stroke-linejoin:miter;stroke-miterlimit:10;stroke-opacity:1;stroke-dasharray:none" /></g><g
           transform="translate(404.1392,659.2657)"
           id="g52"><path
             d="m 0,0 c 0.032,-4.621 -1.253,-8.983 -2.079,-12.745 -5.637,-1.516 -22.559,-9.749 -22.456,-14.909 0.028,-5.492 8.947,-9.593 13.587,-6.316 1.92,1.355 4.138,4.209 6.478,2.186 4.606,-3.98 7.418,-13.871 8.828,-14.925 2.659,-0.419 6.614,-0.263 8.437,0.888 -2.716,9.588 -18.488,16.151 -15.318,21.31 0.455,-1.038 1.385,-1.35 1.997,-1.624 -0.154,4.87 2.995,6.562 5.773,3.622 -1.19,-5.078 -2.031,-9.274 2.075,-13.186 1.748,-1.664 3.707,-3.117 5.285,-4.954 1.711,-1.99 2.124,-4.279 2.852,-6.722 -4.125,-0.833 -10.312,-1.424 -13.321,-1.554 -0.579,4.044 -2.283,10.021 -6.749,11.331 -1.454,0.425 -6.001,0.067 -4.353,-2.44 4.431,-6.744 10.136,-12.355 5.662,-22.232 -1.684,-3.718 -8.727,-3.541 -11.874,-1.754 0.589,3.527 1.978,6.733 0.977,10.357 -0.968,3.511 -3.796,5.812 -6.462,8.073 -5.874,4.983 -10.044,10.73 -9.641,18.771 0.384,7.657 2.147,14.903 7.931,20.329 C -17.002,-1.456 -7.992,2.054 0,0"
             inkscape:connector-curvature="0"
             id="path54"
             style="fill:#f9b00f;fill-opacity:1;fill-rule:evenodd;stroke:none" /></g><g
           transform="translate(406.3127,658.5432)"
           id="g56"><path
             d="m 0,0 c 10.249,-3.748 19.795,-14.152 22.422,-26.709 -4.097,2.194 -9.909,3.629 -16.018,3.809 -1.39,4.161 -5.131,5.97 -9.768,6.882 C -2.145,-11.196 0.101,-5.421 0,0"
             inkscape:connector-curvature="0"
             id="path58"
             style="fill:#ffffff;fill-opacity:1;fill-rule:evenodd;stroke:none" /></g><g
           transform="translate(406.3127,658.5432)"
           id="g60"><path
             d="m 0,0 c 10.249,-3.748 19.795,-14.152 22.422,-26.709 -4.097,2.194 -9.909,3.629 -16.018,3.809 -1.39,4.161 -5.131,5.97 -9.768,6.882 C -2.145,-11.196 0.101,-5.421 0,0 z"
             inkscape:connector-curvature="0"
             id="path62"
             style="fill:none;stroke:#1e4b9b;stroke-width:1.03299999;stroke-linecap:butt;stroke-linejoin:miter;stroke-miterlimit:10;stroke-opacity:1;stroke-dasharray:none" /></g><g
           transform="translate(406.3127,658.5432)"
           id="g64"><path
             d="m 0,0 c 10.249,-3.748 19.795,-14.152 22.422,-26.709 -4.097,2.194 -9.909,3.629 -16.018,3.809 -1.39,4.161 -5.131,5.97 -9.768,6.882 C -2.145,-11.196 0.101,-5.421 0,0"
             inkscape:connector-curvature="0"
             id="path66"
             style="fill:#f9b00f;fill-opacity:1;fill-rule:evenodd;stroke:none" /></g><g
           transform="translate(401.2071,644.5228)"
           id="g68"><path
             d="m 0,0 c 0.072,-0.488 -0.334,-2.678 -0.297,-2.891 1.034,-0.297 4.335,-1.307 4.335,-1.307 -1.005,-1.362 -8.195,-4.203 -5.884,-9.378 -3.432,-0.644 -5.31,-3.362 -8.583,-4.463 -3.484,-1.172 -7.077,0.98 -8.583,4.235 C -21.074,-9.35 -3.641,-1.223 0,0"
             inkscape:connector-curvature="0"
             id="path70"
             style="fill:#ffffff;fill-opacity:1;fill-rule:evenodd;stroke:none" /></g><g
           transform="translate(401.2071,644.5228)"
           id="g72"><path
             d="m 0,0 c 0.072,-0.488 -0.334,-2.678 -0.297,-2.891 1.034,-0.297 4.335,-1.307 4.335,-1.307 -1.005,-1.362 -8.195,-4.203 -5.884,-9.378 -3.432,-0.644 -5.31,-3.362 -8.583,-4.463 -3.484,-1.172 -7.077,0.98 -8.583,4.235 C -21.074,-9.35 -3.641,-1.223 0,0 z"
             inkscape:connector-curvature="0"
             id="path74"
             style="fill:none;stroke:#1e4b9b;stroke-width:1.03299999;stroke-linecap:butt;stroke-linejoin:miter;stroke-miterlimit:10;stroke-opacity:1;stroke-dasharray:none" /></g><g
           transform="translate(401.2071,644.5228)"
           id="g76"><path
             d="m 0,0 c 0.072,-0.488 -0.334,-2.678 -0.297,-2.891 1.034,-0.297 4.335,-1.307 4.335,-1.307 -1.005,-1.362 -8.195,-4.203 -5.884,-9.378 -3.432,-0.644 -5.31,-3.362 -8.583,-4.463 -3.484,-1.172 -7.077,0.98 -8.583,4.235 C -21.074,-9.35 -3.641,-1.223 0,0"
             inkscape:connector-curvature="0"
             id="path78"
             style="fill:#f9b00f;fill-opacity:1;fill-rule:evenodd;stroke:none" /></g><g
           transform="translate(430.3233,622.8955)"
           id="g80"><path
             d="m 0,0 c -1.367,-0.351 -2.336,-1.947 -3.581,-2.628 -1.306,-0.714 -3.196,1.888 -0.041,4.277 -2.66,0.325 -4.038,-4.379 -2.826,-7.468 0.576,0.594 0.423,1.932 0.828,1.917 1.827,-1.774 3.98,0.361 5.105,1.332 1.165,-0.388 1.435,-1.673 1.776,-2.886 -3.951,-2.183 -4.689,-3.8 -5.952,-6.68 2.499,1.821 9.199,7.344 8.034,2.197 -0.294,-1.301 -1.342,-2.296 -1.45,-3.667 -0.102,-1.309 0.808,-2.448 1.519,-3.453 0.456,-0.644 1.261,-1.608 1.863,-2.641 3.094,-5.307 -3.687,-4.498 -6.518,-1.929 -0.308,-0.913 0.877,-1.805 2.162,-2.797 -3.562,-0.475 -9.198,-2.639 -12.756,-1.008 0.124,3.035 -1.091,8.161 0.967,10.773 2.515,3.193 6.321,-3.843 7.248,-5.446 -0.078,2.591 -1.184,5.594 -3.396,7.12 -1.289,0.889 -1.205,1.309 -1.577,2.914 -0.966,4.158 -3.801,7.193 -6.127,10.167 1.305,0.378 3.255,-0.598 4.795,0.169 2.439,1.214 1.709,6.382 3.418,5.47 C -5.144,5.004 -4.553,3.422 -2.956,2.98 -2.945,3.837 -4.764,5.608 -4.288,6.976 -2.458,6.649 0.643,5.149 1.751,3.172 3.464,0.114 1.375,0.352 0,0"
             inkscape:connector-curvature="0"
             id="path82"
             style="fill:#ffffff;fill-opacity:1;fill-rule:evenodd;stroke:none" /></g><g
           transform="translate(415.1573,609.2264)"
           id="g84"><path
             d="m 0,0 c 0.444,0 0.752,0.177 1.196,0.177 0.306,-1.645 0.256,-10.742 -0.825,-11.974 -2.318,-2.641 -1.176,5.286 -1.279,5.916 -1.088,-1.144 -0.986,-4.036 -1.251,-5.4 -3.393,1.365 -7.222,5.449 -4.722,10.615 0.822,-1.664 0.084,-4.693 1.716,-6.044 2.254,1.298 2.573,3.975 5.165,4.935 L 0,0 z"
             inkscape:connector-curvature="0"
             id="path86"
             style="fill:#ffffff;fill-opacity:1;fill-rule:evenodd;stroke:none" /></g><g
           transform="translate(393.8465,573.7084)"
           id="g88"><path
             d="m 0,0 c -2.803,3.863 -7.855,10.6 -5.292,19.056 2.131,-0.639 4.157,-1.209 6.402,-1.11 -4.407,-19.183 26.124,-25.475 23.949,-38.786 -8.899,6.235 -24.355,5.679 -29.721,8.187 -7.428,3.472 -12.104,17.76 -12.652,20.645 0.735,1.073 1.74,2.949 2.885,2.886 1.805,-5.299 5.178,-11.278 7.992,-13.32 -2.467,4.328 -6.686,12.759 -6.085,15.471 1.486,6.696 4.482,9.48 4.531,17.605 4.345,-0.012 1.099,-8.098 0.516,-10.156 C -9.652,12.787 -6.376,4.595 0,0"
             inkscape:connector-curvature="0"
             id="path90"
             style="fill:#ffffff;fill-opacity:1;fill-rule:evenodd;stroke:none" /></g><g
           transform="translate(393.8465,573.7084)"
           id="g92"><path
             d="m 0,0 c -2.803,3.863 -7.855,10.6 -5.292,19.056 2.131,-0.639 4.157,-1.209 6.402,-1.11 -4.407,-19.183 26.124,-25.475 23.949,-38.786 -8.899,6.235 -24.355,5.679 -29.721,8.187 -7.428,3.472 -12.104,17.76 -12.652,20.645 0.735,1.073 1.74,2.949 2.885,2.886 1.805,-5.299 5.178,-11.278 7.992,-13.32 -2.467,4.328 -6.686,12.759 -6.085,15.471 1.486,6.696 4.482,9.48 4.531,17.605 4.345,-0.012 1.099,-8.098 0.516,-10.156 C -9.652,12.787 -6.376,4.595 0,0 z"
             inkscape:connector-curvature="0"
             id="path94"
             style="fill:none;stroke:#1e4b9b;stroke-width:1.03299999;stroke-linecap:butt;stroke-linejoin:miter;stroke-miterlimit:10;stroke-opacity:1;stroke-dasharray:none" /></g><g
           transform="translate(393.8465,573.7084)"
           id="g96"><path
             d="m 0,0 c -2.803,3.863 -7.855,10.6 -5.292,19.056 2.131,-0.639 4.157,-1.209 6.402,-1.11 -4.407,-19.183 26.124,-25.475 23.949,-38.786 -8.899,6.235 -24.355,5.679 -29.721,8.187 -7.428,3.472 -12.104,17.76 -12.652,20.645 0.735,1.073 1.74,2.949 2.885,2.886 1.805,-5.299 5.178,-11.278 7.992,-13.32 -2.467,4.328 -6.686,12.759 -6.085,15.471 1.486,6.696 4.482,9.48 4.531,17.605 4.345,-0.012 1.099,-8.098 0.516,-10.156 C -9.652,12.787 -6.376,4.595 0,0"
             inkscape:connector-curvature="0"
             id="path98"
             style="fill:#f9b00f;fill-opacity:1;fill-rule:evenodd;stroke:none" /></g><g
           transform="translate(438.0214,603.8989)"
           id="g100"><path
             d="m 0,0 c 8.102,-0.655 6.083,-13.678 4.218,-19.535 2.411,2.595 3.409,9.548 3.33,14.651 8.543,3.392 6.634,-12.233 3.774,-17.315 3.195,1.837 4.139,7.848 4.662,13.098 3.928,-0.647 5.108,-3.921 4.938,-6.669 -1.051,-17.021 -24.064,-28.439 -36.993,-33.733 -0.043,5.915 3.297,16.323 8.1,22.686 4.85,6.426 6.545,11.586 3.531,19.234 C 0.323,-6.914 1.688,-3.222 0,0"
             inkscape:connector-curvature="0"
             id="path102"
             style="fill:#ffffff;fill-opacity:1;fill-rule:evenodd;stroke:none" /></g><g
           transform="translate(438.0214,603.8989)"
           id="g104"><path
             d="m 0,0 c 8.102,-0.655 6.083,-13.678 4.218,-19.535 2.411,2.595 3.409,9.548 3.33,14.651 8.543,3.392 6.634,-12.233 3.774,-17.315 3.195,1.837 4.139,7.848 4.662,13.098 3.928,-0.647 5.108,-3.921 4.938,-6.669 -1.051,-17.021 -24.064,-28.439 -36.993,-33.733 -0.043,5.915 3.297,16.323 8.1,22.686 4.85,6.426 6.545,11.586 3.531,19.234 C 0.323,-6.914 1.688,-3.222 0,0 z"
             inkscape:connector-curvature="0"
             id="path106"
             style="fill:none;stroke:#1e4b9b;stroke-width:1.03299999;stroke-linecap:butt;stroke-linejoin:miter;stroke-miterlimit:10;stroke-opacity:1;stroke-dasharray:none" /></g><g
           transform="translate(438.0214,603.8989)"
           id="g108"><path
             d="m 0,0 c 8.102,-0.655 6.083,-13.678 4.218,-19.535 2.411,2.595 3.409,9.548 3.33,14.651 8.543,3.392 6.634,-12.233 3.774,-17.315 3.195,1.837 4.139,7.848 4.662,13.098 3.928,-0.647 5.108,-3.921 4.938,-6.669 -1.051,-17.021 -24.064,-28.439 -36.993,-33.733 -0.043,5.915 3.297,16.323 8.1,22.686 4.85,6.426 6.545,11.586 3.531,19.234 C 0.323,-6.914 1.688,-3.222 0,0"
             inkscape:connector-curvature="0"
             id="path110"
             style="fill:#f9b00f;fill-opacity:1;fill-rule:evenodd;stroke:none" /></g><g
           transform="translate(420.9296,592.7994)"
           id="g112"><path
             d="m 0,0 c -0.231,-6.413 -2.621,-10.291 -1.92,-18.223 1.022,5.138 3.915,19.491 9.999,20.341 0.675,-2.171 -2.425,-3.933 -2.166,-6.216 1.583,-1.401 3.732,-1.105 4.267,-3.369 0.659,-2.795 -1.212,-5.305 -2.753,-7.339 -4.071,-5.373 -6.417,-11.855 -8.315,-18.27 -4.241,5.675 -8.801,8.657 -13.905,13.469 0.054,1.352 1.371,5.229 1.495,6.511 -1.298,-1.023 -2.69,-4.237 -4.018,-3.553 -4.869,2.511 -6.814,8.268 -6.18,12.174 5.743,0.94 7.3,3.748 8.365,9.102 C -11.794,-0.605 -5.386,-0.728 0,0"
             inkscape:connector-curvature="0"
             id="path114"
             style="fill:#ffffff;fill-opacity:1;fill-rule:evenodd;stroke:none" /></g><g
           transform="translate(486.8592,567.2707)"
           id="g116"><path
             d="M 0,0 C 1.974,0.662 3.719,1.402 5.297,2.213 6.199,0.888 7.166,-0.404 8.202,-1.637 6.199,-3.025 4.247,-4.198 2.797,-4.889 c -6.776,-3.225 -19.196,23.264 -19.716,29.025 -0.324,3.574 8.473,6.215 9.778,6.311 0.363,0.026 0.761,0.001 1.185,-0.068 l 0.539,-2.784 c 0,0 2.794,-13.36 10.242,-24.675 C 3.414,2.007 1.828,1.062 0,0"
             inkscape:connector-curvature="0"
             id="path118"
             style="fill:#ffffff;fill-opacity:1;fill-rule:evenodd;stroke:none" /></g><g
           transform="translate(445.3474,564.1633)"
           id="g120"><path
             d="m 0,0 c 8.9,6.36 19.455,12.917 15.796,27.526 1.24,1.057 2.733,2.558 4.405,2.442 2.767,-9.301 6.622,-18.352 11.791,-26.579 2.08,-3.309 4.451,-6.283 6.912,-9.299 2.115,-2.592 3.036,-4.311 -0.349,-6.106 C 23.372,-20.062 8.604,-14.171 0,0"
             inkscape:connector-curvature="0"
             id="path122"
             style="fill:#ffffff;fill-opacity:1;fill-rule:evenodd;stroke:none" /></g><g
           transform="translate(445.3474,564.1633)"
           id="g124"><path
             d="m 0,0 c 8.9,6.36 19.455,12.917 15.796,27.526 1.24,1.057 2.733,2.558 4.405,2.442 2.767,-9.301 6.622,-18.352 11.791,-26.579 2.08,-3.309 4.451,-6.283 6.912,-9.299 2.115,-2.592 3.036,-4.311 -0.349,-6.106 C 23.372,-20.062 8.604,-14.171 0,0 z"
             inkscape:connector-curvature="0"
             id="path126"
             style="fill:none;stroke:#1e4b9b;stroke-width:1.03299999;stroke-linecap:butt;stroke-linejoin:miter;stroke-miterlimit:10;stroke-opacity:1;stroke-dasharray:none" /></g><g
           transform="translate(445.3474,564.1633)"
           id="g128"><path
             d="m 0,0 c 8.9,6.36 19.455,12.917 15.796,27.526 1.24,1.057 2.733,2.558 4.405,2.442 2.767,-9.301 6.622,-18.352 11.791,-26.579 2.08,-3.309 4.451,-6.283 6.912,-9.299 2.115,-2.592 3.036,-4.311 -0.349,-6.106 C 23.372,-20.062 8.604,-14.171 0,0"
             inkscape:connector-curvature="0"
             id="path130"
             style="fill:#f9b00f;fill-opacity:1;fill-rule:evenodd;stroke:none" /></g><g
           transform="translate(364.179,590.9398)"
           id="g132"><path
             d="m 0,0 c -2.617,-0.216 -15.142,-9.527 -17.231,-15.636 3.406,3.528 15.002,10.206 18.22,7.261 -12.419,-2.74 -27.151,-21.242 -27.716,-35.746 -2.051,0.811 -4.735,0.402 -5.669,0.645 C -32.6,-22.209 -15.374,-2.368 0,0"
             inkscape:connector-curvature="0"
             id="path134"
             style="fill:#ffffff;fill-opacity:1;fill-rule:evenodd;stroke:none" /></g><g
           transform="translate(364.179,590.9398)"
           id="g136"><path
             d="m 0,0 c -2.617,-0.216 -15.142,-9.527 -17.231,-15.636 3.406,3.528 15.002,10.206 18.22,7.261 -12.419,-2.74 -27.151,-21.242 -27.716,-35.746 -2.051,0.811 -4.735,0.402 -5.669,0.645 C -32.6,-22.209 -15.374,-2.368 0,0 z"
             inkscape:connector-curvature="0"
             id="path138"
             style="fill:none;stroke:#1e4b9b;stroke-width:1.03299999;stroke-linecap:butt;stroke-linejoin:miter;stroke-miterlimit:10;stroke-opacity:1;stroke-dasharray:none" /></g><g
           transform="translate(364.179,590.9398)"
           id="g140"><path
             d="m 0,0 c -2.617,-0.216 -15.142,-9.527 -17.231,-15.636 3.406,3.528 15.002,10.206 18.22,7.261 -12.419,-2.74 -27.151,-21.242 -27.716,-35.746 -2.051,0.811 -4.735,0.402 -5.669,0.645 C -32.6,-22.209 -15.374,-2.368 0,0"
             inkscape:connector-curvature="0"
             id="path142"
             style="fill:#f9b00f;fill-opacity:1;fill-rule:evenodd;stroke:none" /></g><g
           transform="translate(358.5501,534.1945)"
           id="g144"><path
             d="m 0,0 c 7.686,1.491 18.501,5.785 22.774,13.683 1.804,3.336 2.521,6.281 6.424,8.063 5.927,2.706 14.624,0.465 20.983,-0.904 7.571,-1.631 10.285,-8.899 10.423,-15.958 -8.229,-2.625 -7.733,-14.572 -12.358,-20.463 -4.857,-6.185 -19.017,-9.171 -28.71,-21.937 -1.732,5.298 -3.159,10.9 -5.328,15.762 3.682,-1.83 4.749,-5.528 6.336,-7.456 0.025,13.028 -19.536,12.756 -24.108,16.994 -19.545,18.121 -13.184,36.857 5.119,49.288 -3.345,-5.367 -9.546,-18.759 -7.77,-27.526 1.645,10.418 5.945,20.523 13.89,29.345 0.724,0.803 7.324,3.702 9.04,2.118 1.373,-1.269 2.128,-3.129 2.821,-4.825 -2.291,0.299 -3.933,1.248 -6.438,1.333 1.956,-1.239 4.891,-2.64 4.884,-5.106 -1.419,-0.431 -3.643,-0.057 -4.884,-0.667 4.874,-1.637 9.701,-3.322 12.875,-6.659 -2.386,-2.558 -3.322,-5.818 -4.7,-8.816 C 18.061,9.271 6.511,2.784 0,0"
             inkscape:connector-curvature="0"
             id="path146"
             style="fill:#ffffff;fill-opacity:1;fill-rule:evenodd;stroke:none" /></g><g
           transform="translate(358.5501,534.1945)"
           id="g148"><path
             d="m 0,0 c 7.686,1.491 18.501,5.785 22.774,13.683 1.804,3.336 2.521,6.281 6.424,8.063 5.927,2.706 14.624,0.465 20.983,-0.904 7.571,-1.631 10.285,-8.899 10.423,-15.958 -8.229,-2.625 -7.733,-14.572 -12.358,-20.463 -4.857,-6.185 -19.017,-9.171 -28.71,-21.937 -1.732,5.298 -3.159,10.9 -5.328,15.762 3.682,-1.83 4.749,-5.528 6.336,-7.456 0.025,13.028 -19.536,12.756 -24.108,16.994 -19.545,18.121 -13.184,36.857 5.119,49.288 -3.345,-5.367 -9.546,-18.759 -7.77,-27.526 1.645,10.418 5.945,20.523 13.89,29.345 0.724,0.803 7.324,3.702 9.04,2.118 1.373,-1.269 2.128,-3.129 2.821,-4.825 -2.291,0.299 -3.933,1.248 -6.438,1.333 1.956,-1.239 4.891,-2.64 4.884,-5.106 -1.419,-0.431 -3.643,-0.057 -4.884,-0.667 4.874,-1.637 9.701,-3.322 12.875,-6.659 -2.386,-2.558 -3.322,-5.818 -4.7,-8.816 C 18.061,9.271 6.511,2.784 0,0 z"
             inkscape:connector-curvature="0"
             id="path150"
             style="fill:none;stroke:#1e4b9b;stroke-width:1.03299999;stroke-linecap:butt;stroke-linejoin:miter;stroke-miterlimit:10;stroke-opacity:1;stroke-dasharray:none" /></g><g
           transform="translate(358.5501,534.1945)"
           id="g152"><path
             d="m 0,0 c 7.686,1.491 18.501,5.785 22.774,13.683 1.804,3.336 2.521,6.281 6.424,8.063 5.927,2.706 14.624,0.465 20.983,-0.904 7.571,-1.631 10.285,-8.899 10.423,-15.958 -8.229,-2.625 -7.733,-14.572 -12.358,-20.463 -4.857,-6.185 -19.017,-9.171 -28.71,-21.937 -1.732,5.298 -3.159,10.9 -5.328,15.762 3.682,-1.83 4.749,-5.528 6.336,-7.456 0.025,13.028 -19.536,12.756 -24.108,16.994 -19.545,18.121 -13.184,36.857 5.119,49.288 -3.345,-5.367 -9.546,-18.759 -7.77,-27.526 1.645,10.418 5.945,20.523 13.89,29.345 0.724,0.803 7.324,3.702 9.04,2.118 1.373,-1.269 2.128,-3.129 2.821,-4.825 -2.291,0.299 -3.933,1.248 -6.438,1.333 1.956,-1.239 4.891,-2.64 4.884,-5.106 -1.419,-0.431 -3.643,-0.057 -4.884,-0.667 4.874,-1.637 9.701,-3.322 12.875,-6.659 -2.386,-2.558 -3.322,-5.818 -4.7,-8.816 C 18.061,9.271 6.511,2.784 0,0"
             inkscape:connector-curvature="0"
             id="path154"
             style="fill:#f9b00f;fill-opacity:1;fill-rule:evenodd;stroke:none" /></g><g
           transform="translate(277.0716,566.7378)"
           id="g156"><path
             d="m 0,0 c 0.709,-1.765 2.624,-2.652 4.634,-3.68 3.651,-1.871 8.688,-4.662 12.866,-4.742 2.233,-0.042 4.507,4.661 6.645,1.943 1.409,-1.791 0.939,-5.611 -1.493,-6.307 -2.388,-0.684 -6.818,1.74 -8.954,2.682 C 7.797,-7.503 4.37,-7.56 -1.1,-3.906 -2.482,-2.984 -5.105,-2.017 -5.762,-0.355 -6.953,2.657 -3.4,5.82 -1.146,4.304 1.68,2.404 -0.945,2.354 0,0"
             inkscape:connector-curvature="0"
             id="path158"
             style="fill:#ffffff;fill-opacity:1;fill-rule:evenodd;stroke:none" /></g><g
           transform="translate(277.0716,566.7378)"
           id="g160"><path
             d="m 0,0 c 0.709,-1.765 2.624,-2.652 4.634,-3.68 3.651,-1.871 8.688,-4.662 12.866,-4.742 2.233,-0.042 4.507,4.661 6.645,1.943 1.409,-1.791 0.939,-5.611 -1.493,-6.307 -2.388,-0.684 -6.818,1.74 -8.954,2.682 C 7.797,-7.503 4.37,-7.56 -1.1,-3.906 -2.482,-2.984 -5.105,-2.017 -5.762,-0.355 -6.953,2.657 -3.4,5.82 -1.146,4.304 1.68,2.404 -0.945,2.354 0,0 z"
             inkscape:connector-curvature="0"
             id="path162"
             style="fill:none;stroke:#1e4b9b;stroke-width:1.03299999;stroke-linecap:butt;stroke-linejoin:miter;stroke-miterlimit:10;stroke-opacity:1;stroke-dasharray:none" /></g><g
           transform="translate(277.0716,566.7378)"
           id="g164"><path
             d="m 0,0 c 0.709,-1.765 2.624,-2.652 4.634,-3.68 3.651,-1.871 8.688,-4.662 12.866,-4.742 2.233,-0.042 4.507,4.661 6.645,1.943 1.409,-1.791 0.939,-5.611 -1.493,-6.307 -2.388,-0.684 -6.818,1.74 -8.954,2.682 C 7.797,-7.503 4.37,-7.56 -1.1,-3.906 -2.482,-2.984 -5.105,-2.017 -5.762,-0.355 -6.953,2.657 -3.4,5.82 -1.146,4.304 1.68,2.404 -0.945,2.354 0,0"
             inkscape:connector-curvature="0"
             id="path166"
             style="fill:#f9b00f;fill-opacity:1;fill-rule:evenodd;stroke:none" /></g><g
           transform="translate(473.0127,544.9686)"
           id="g168"><path
             d="m 0,0 c 2.663,-18.16 -5.128,-37.567 -16.787,-51.362 -7.659,13.841 -26.749,25.193 -28.937,33.838 -1.731,3.981 -2.256,8.298 -5.915,11.19 0.198,5.349 -0.846,12.035 4.375,15.396 2.734,1.761 6.007,2.53 8.947,3.868 2.963,1.348 5.779,2.974 8.654,4.489 C -23.44,6.688 -12.072,0.44 0,0"
             inkscape:connector-curvature="0"
             id="path170"
             style="fill:#ffffff;fill-opacity:1;fill-rule:evenodd;stroke:none" /></g><g
           transform="translate(473.0127,544.9686)"
           id="g172"><path
             d="m 0,0 c 2.663,-18.16 -5.128,-37.567 -16.787,-51.362 -7.659,13.841 -26.749,25.193 -28.937,33.838 -1.731,3.981 -2.256,8.298 -5.915,11.19 0.198,5.349 -0.846,12.035 4.375,15.396 2.734,1.761 6.007,2.53 8.947,3.868 2.963,1.348 5.779,2.974 8.654,4.489 C -23.44,6.688 -12.072,0.44 0,0 z"
             inkscape:connector-curvature="0"
             id="path174"
             style="fill:none;stroke:#1e4b9b;stroke-width:1.03299999;stroke-linecap:butt;stroke-linejoin:miter;stroke-miterlimit:10;stroke-opacity:1;stroke-dasharray:none" /></g><g
           transform="translate(473.0127,544.9686)"
           id="g176"><path
             d="m 0,0 c 2.663,-18.16 -5.128,-37.567 -16.787,-51.362 -7.659,13.841 -26.749,25.193 -28.937,33.838 -1.731,3.981 -2.256,8.298 -5.915,11.19 0.198,5.349 -0.846,12.035 4.375,15.396 2.734,1.761 6.007,2.53 8.947,3.868 2.963,1.348 5.779,2.974 8.654,4.489 C -23.44,6.688 -12.072,0.44 0,0"
             inkscape:connector-curvature="0"
             id="path178"
             style="fill:#f9b00f;fill-opacity:1;fill-rule:evenodd;stroke:none" /></g><g
           transform="translate(306.1613,530.4208)"
           id="g180"><path
             d="M 0,0 C -2.177,2.706 -5.039,4.728 -7.769,6.882 -8.294,5.927 -8.594,6.093 -9.053,5.071 -6.139,4.361 -2.833,0.772 0,0 m -27.235,27.012 c 1.998,-0.265 3.316,-0.965 5.313,-1.309 2.636,-0.452 5.005,-1.256 7.287,-2.583 2.119,-1.233 4.218,-2.558 5.299,-4.843 1.25,-2.646 1.401,-5.591 3.016,-8.091 5.023,-7.778 13.702,-8.282 21.412,-11.287 4.098,-1.597 3.848,-4.268 7.107,-6.446 -0.597,3.352 -4.116,7.297 -0.835,16.64 0.606,1.728 1.693,4.42 3.721,4.892 2.802,0.653 6.375,-1.05 7.326,-2.441 1.657,-5.851 3.788,-9.634 6.875,-14.877 6.305,-10.708 1.17,-13.943 -6.957,-17.769 5.822,0.554 9.461,2.77 13.178,8.449 4.083,-1.986 0.433,-5.907 -1.639,-7.883 -3.545,-3.381 -7.639,-6.512 -10.612,-10.428 -3.014,-3.968 -4.963,-6.75 -10.232,-4.257 -20.238,9.575 -21.464,16.153 -36.787,31.447 0.499,0.686 1.091,1.278 1.776,1.776 2.267,-0.841 6.51,-4.716 8.887,-5.447 -1.125,2.465 -8.881,5.938 -7.777,10.109 -2.199,-0.472 -2.9,-3.091 -4.475,-4.396 -2.45,-2.032 -5.103,-0.094 -6.643,1.077 0.966,1.92 0.766,4.57 2.461,5.761 1.027,-0.576 4.298,-1.66 5.498,-0.666 -3.598,0.941 -5.462,2.28 -4.355,5.857 0.486,1.57 0.55,3.972 -3.316,8.878 -1.639,2.079 -3.616,1.799 -6.083,2.459 -2.879,0.77 -4.468,6.043 0.555,5.378"
             inkscape:connector-curvature="0"
             id="path182"
             style="fill:#ffffff;fill-opacity:1;fill-rule:evenodd;stroke:none" /></g><g
           transform="translate(282.4417,542.2574)"
           id="g184"><path
             d="M 0,0 C -1.51,0.654 -5.77,2.039 -7.308,4.372 -8.748,6.558 -7.65,8.845 -5.069,8.284 -1.688,7.547 0.792,5.906 2.279,3.274 3.89,0.42 3.843,-1.662 0,0"
             inkscape:connector-curvature="0"
             id="path186"
             style="fill:#ffffff;fill-opacity:1;fill-rule:evenodd;stroke:none" /></g><g
           transform="translate(271.2781,543.1406)"
           id="g188"><path
             d="m 0,0 c 0.232,3.664 3.946,0.601 5.477,-0.521 1.189,-0.871 5.277,-2.135 7.737,-2.421 1.168,-0.137 0.78,-3.294 -1.308,-3.773 C 8.554,-7.484 -0.38,-5.988 0,0"
             inkscape:connector-curvature="0"
             id="path190"
             style="fill:#ffffff;fill-opacity:1;fill-rule:evenodd;stroke:none" /></g><g
           transform="translate(283.4679,534.8196)"
           id="g192"><path
             d="M 0,0 C 1.432,-5.595 -14.943,-3.505 -11.492,2.705 -8.357,0.331 -4.859,-0.196 0,0"
             inkscape:connector-curvature="0"
             id="path194"
             style="fill:#ffffff;fill-opacity:1;fill-rule:evenodd;stroke:none" /></g><g
           transform="translate(423.267,530.4998)"
           id="g196"><path
             d="M 0,0 C 2.727,-10.303 -5.335,-9.461 -4.018,-0.068 -3.162,6.037 -1.533,5.792 0,0"
             inkscape:connector-curvature="0"
             id="path198"
             style="fill:#ffffff;fill-opacity:1;fill-rule:evenodd;stroke:none" /></g><g
           transform="translate(423.267,530.4998)"
           id="g200"><path
             d="M 0,0 C 2.727,-10.303 -5.335,-9.461 -4.018,-0.068 -3.162,6.037 -1.533,5.792 0,0 z"
             inkscape:connector-curvature="0"
             id="path202"
             style="fill:none;stroke:#1e4b9b;stroke-width:1.03299999;stroke-linecap:butt;stroke-linejoin:miter;stroke-miterlimit:10;stroke-opacity:1;stroke-dasharray:none" /></g><g
           transform="translate(423.267,530.4998)"
           id="g204"><path
             d="M 0,0 C 2.727,-10.303 -5.335,-9.461 -4.018,-0.068 -3.162,6.037 -1.533,5.792 0,0"
             inkscape:connector-curvature="0"
             id="path206"
             style="fill:#f9b00f;fill-opacity:1;fill-rule:evenodd;stroke:none" /></g><g
           transform="translate(281.5009,530.4506)"
           id="g208"><path
             d="M 0,0 C -0.982,-4.384 -8.717,-1.724 -9.092,1.695 -6.867,-0.45 -2.942,0.4 0,0"
             inkscape:connector-curvature="0"
             id="path210"
             style="fill:#ffffff;fill-opacity:1;fill-rule:evenodd;stroke:none" /></g><g
           transform="translate(417.1544,524.6236)"
           id="g212"><path
             d="M 0,0 C 1.583,-1.452 2.609,-3.46 5.107,-3.996 7.874,-10.543 5.076,-17.528 0,-19.731 c -2.189,2.626 -5.6,5.377 -4.842,9.204 C -4.135,-6.952 -0.919,-3.466 0,0"
             inkscape:connector-curvature="0"
             id="path214"
             style="fill:#ffffff;fill-opacity:1;fill-rule:evenodd;stroke:none" /></g><g
           transform="translate(417.1544,524.6236)"
           id="g216"><path
             d="M 0,0 C 1.583,-1.452 2.609,-3.46 5.107,-3.996 7.874,-10.543 5.076,-17.528 0,-19.731 c -2.189,2.626 -5.6,5.377 -4.842,9.204 C -4.135,-6.952 -0.919,-3.466 0,0 z"
             inkscape:connector-curvature="0"
             id="path218"
             style="fill:none;stroke:#1e4b9b;stroke-width:1.03299999;stroke-linecap:butt;stroke-linejoin:miter;stroke-miterlimit:10;stroke-opacity:1;stroke-dasharray:none" /></g><g
           transform="translate(417.1544,524.6236)"
           id="g220"><path
             d="M 0,0 C 1.583,-1.452 2.609,-3.46 5.107,-3.996 7.874,-10.543 5.076,-17.528 0,-19.731 c -2.189,2.626 -5.6,5.377 -4.842,9.204 C -4.135,-6.952 -0.919,-3.466 0,0"
             inkscape:connector-curvature="0"
             id="path222"
             style="fill:#f9b00f;fill-opacity:1;fill-rule:evenodd;stroke:none" /></g><g
           transform="translate(451.7849,484.2478)"
           id="g224"><path
             d="M 0,0 C 5.33,10.432 -13.016,8.171 -17.172,8.353 -12.799,7.103 -1.543,9.167 0,0 m -25.084,37.072 c 4.062,-1.607 3.453,-7.483 3.202,-10.948 -0.291,-4.011 -1.721,-10.02 0.881,-13.561 3.213,-4.372 12.37,-0.139 18.939,-2.012 C 0.962,9.688 2.953,7.624 3.693,4.498 4.102,2.768 2.825,1.233 2.664,-0.444 2.5,-2.154 3.32,-4.116 1.998,-5.55 c -6.053,-0.132 -12.024,1.388 -18.038,1.853 -18.296,1.412 -37.954,-0.749 -56.771,0.145 -0.422,2.367 -0.356,6.11 0.222,8.214 4.809,1.702 7.764,2.719 23.141,3.309 -4.292,1.189 -18.088,0.789 -22.919,0.02 -0.032,3.559 5.568,2.514 7.769,2.664 9.323,0.635 15.36,-0.63 17.269,10.298 0.362,2.07 0.002,4.246 0.471,6.271 0.48,2.076 2.599,2.568 4.014,3.854 -0.006,-4.133 -1.412,-9.403 0.419,-13.306 1.93,-4.115 8.02,-3.723 11.773,-3.34 10.017,1.022 3.745,13.431 5.568,22.64"
             inkscape:connector-curvature="0"
             id="path226"
             style="fill:#ffffff;fill-opacity:1;fill-rule:evenodd;stroke:none" /></g><g
           transform="translate(451.7849,484.2478)"
           id="g228"><path
             d="M 0,0 C 5.33,10.432 -13.016,8.171 -17.172,8.353 -12.799,7.103 -1.543,9.167 0,0 z m -25.084,37.072 c 4.062,-1.607 3.453,-7.483 3.202,-10.948 -0.291,-4.011 -1.721,-10.02 0.881,-13.561 3.213,-4.372 12.37,-0.139 18.939,-2.012 C 0.962,9.688 2.953,7.624 3.693,4.498 4.102,2.768 2.825,1.233 2.664,-0.444 2.5,-2.154 3.32,-4.116 1.998,-5.55 c -6.053,-0.132 -12.024,1.388 -18.038,1.853 -18.296,1.412 -37.954,-0.749 -56.771,0.145 -0.422,2.367 -0.356,6.11 0.222,8.214 4.809,1.702 7.764,2.719 23.141,3.309 -4.292,1.189 -18.088,0.789 -22.919,0.02 -0.032,3.559 5.568,2.514 7.769,2.664 9.323,0.635 15.36,-0.63 17.269,10.298 0.362,2.07 0.002,4.246 0.471,6.271 0.48,2.076 2.599,2.568 4.014,3.854 -0.006,-4.133 -1.412,-9.403 0.419,-13.306 1.93,-4.115 8.02,-3.723 11.773,-3.34 10.017,1.022 3.745,13.431 5.568,22.64 z"
             inkscape:connector-curvature="0"
             id="path230"
             style="fill:none;stroke:#1e4b9b;stroke-width:1.03299999;stroke-linecap:butt;stroke-linejoin:miter;stroke-miterlimit:10;stroke-opacity:1;stroke-dasharray:none" /></g><g
           transform="translate(451.7849,484.2478)"
           id="g232"><path
             d="M 0,0 C 5.33,10.432 -13.016,8.171 -17.172,8.353 -12.799,7.103 -1.543,9.167 0,0 m -25.084,37.072 c 4.062,-1.607 3.453,-7.483 3.202,-10.948 -0.291,-4.011 -1.721,-10.02 0.881,-13.561 3.213,-4.372 12.37,-0.139 18.939,-2.012 C 0.962,9.688 2.953,7.624 3.693,4.498 4.102,2.768 2.825,1.233 2.664,-0.444 2.5,-2.154 3.32,-4.116 1.998,-5.55 c -6.053,-0.132 -12.024,1.388 -18.038,1.853 -18.296,1.412 -37.954,-0.749 -56.771,0.145 -0.422,2.367 -0.356,6.11 0.222,8.214 4.809,1.702 7.764,2.719 23.141,3.309 -4.292,1.189 -18.088,0.789 -22.919,0.02 -0.032,3.559 5.568,2.514 7.769,2.664 9.323,0.635 15.36,-0.63 17.269,10.298 0.362,2.07 0.002,4.246 0.471,6.271 0.48,2.076 2.599,2.568 4.014,3.854 -0.006,-4.133 -1.412,-9.403 0.419,-13.306 1.93,-4.115 8.02,-3.723 11.773,-3.34 10.017,1.022 3.745,13.431 5.568,22.64"
             inkscape:connector-curvature="0"
             id="path234"
             style="fill:#f9b00f;fill-opacity:1;fill-rule:evenodd;stroke:none" /></g><g
           transform="translate(390.5168,497.789)"
           id="g236"><path
             d="M 0,0 C 2.016,6.198 5.597,10.831 11.765,12.875 12.84,5.294 9.344,-1.375 0,0"
             inkscape:connector-curvature="0"
             id="path238"
             style="fill:#ffffff;fill-opacity:1;fill-rule:evenodd;stroke:none" /></g><g
           transform="translate(390.5168,497.789)"
           id="g240"><path
             d="M 0,0 C 2.016,6.198 5.597,10.831 11.765,12.875 12.84,5.294 9.344,-1.375 0,0 z"
             inkscape:connector-curvature="0"
             id="path242"
             style="fill:none;stroke:#1e4b9b;stroke-width:1.03299999;stroke-linecap:butt;stroke-linejoin:miter;stroke-miterlimit:10;stroke-opacity:1;stroke-dasharray:none" /></g><g
           transform="translate(390.5168,497.789)"
           id="g244"><path
             d="M 0,0 C 2.016,6.198 5.597,10.831 11.765,12.875 12.84,5.294 9.344,-1.375 0,0"
             inkscape:connector-curvature="0"
             id="path246"
             style="fill:#f9b00f;fill-opacity:1;fill-rule:evenodd;stroke:none" /></g><g
           transform="translate(431.8066,510.4422)"
           id="g248"><path
             d="m 0,0 c 1.225,-0.393 2.095,-1.76 2.914,-2.662 2.708,-2.984 6.162,-4.756 6.853,-9.991 -2.819,-0.43 -8.137,-2.204 -9.71,1.328 C -1.473,-7.888 0.588,-3.62 0,0"
             inkscape:connector-curvature="0"
             id="path250"
             style="fill:#ffffff;fill-opacity:1;fill-rule:evenodd;stroke:none" /></g><g
           transform="translate(431.8066,510.4422)"
           id="g252"><path
             d="m 0,0 c 1.225,-0.393 2.095,-1.76 2.914,-2.662 2.708,-2.984 6.162,-4.756 6.853,-9.991 -2.819,-0.43 -8.137,-2.204 -9.71,1.328 C -1.473,-7.888 0.588,-3.62 0,0 z"
             inkscape:connector-curvature="0"
             id="path254"
             style="fill:none;stroke:#1e4b9b;stroke-width:1.03299999;stroke-linecap:butt;stroke-linejoin:miter;stroke-miterlimit:10;stroke-opacity:1;stroke-dasharray:none" /></g><g
           transform="translate(431.8066,510.4422)"
           id="g256"><path
             d="m 0,0 c 1.225,-0.393 2.095,-1.76 2.914,-2.662 2.708,-2.984 6.162,-4.756 6.853,-9.991 -2.819,-0.43 -8.137,-2.204 -9.71,1.328 C -1.473,-7.888 0.588,-3.62 0,0"
             inkscape:connector-curvature="0"
             id="path258"
             style="fill:#f9b00f;fill-opacity:1;fill-rule:evenodd;stroke:none" /></g><g
           transform="translate(410.9405,509.1104)"
           id="g260"><path
             d="M 0,0 C 1.906,-2.533 4.229,-4.65 5.326,-7.992 -0.038,-8.955 -1.186,-4.219 0,0"
             inkscape:connector-curvature="0"
             id="path262"
             style="fill:#ffffff;fill-opacity:1;fill-rule:evenodd;stroke:none" /></g><g
           transform="translate(410.9405,509.1104)"
           id="g264"><path
             d="M 0,0 C 1.906,-2.533 4.229,-4.65 5.326,-7.992 -0.038,-8.955 -1.186,-4.219 0,0 z"
             inkscape:connector-curvature="0"
             id="path266"
             style="fill:none;stroke:#1e4b9b;stroke-width:1.03299999;stroke-linecap:butt;stroke-linejoin:miter;stroke-miterlimit:10;stroke-opacity:1;stroke-dasharray:none" /></g><g
           transform="translate(410.9405,509.1104)"
           id="g268"><path
             d="M 0,0 C 1.906,-2.533 4.229,-4.65 5.326,-7.992 -0.038,-8.955 -1.186,-4.219 0,0"
             inkscape:connector-curvature="0"
             id="path270"
             style="fill:#f9b00f;fill-opacity:1;fill-rule:evenodd;stroke:none" /></g><g
           transform="translate(422.9267,506.8902)"
           id="g272"><path
             d="M 0,0 C 1.19,-1.05 0.823,-3.927 0.223,-5.105 -1.017,-5.532 -3.516,-6.434 -4.661,-5.549 -4.292,-2.515 -1.783,-1.62 0,0"
             inkscape:connector-curvature="0"
             id="path274"
             style="fill:#ffffff;fill-opacity:1;fill-rule:evenodd;stroke:none" /></g><g
           transform="translate(422.9267,506.8902)"
           id="g276"><path
             d="M 0,0 C 1.19,-1.05 0.823,-3.927 0.223,-5.105 -1.017,-5.532 -3.516,-6.434 -4.661,-5.549 -4.292,-2.515 -1.783,-1.62 0,0 z"
             inkscape:connector-curvature="0"
             id="path278"
             style="fill:none;stroke:#1e4b9b;stroke-width:1.03299999;stroke-linecap:butt;stroke-linejoin:miter;stroke-miterlimit:10;stroke-opacity:1;stroke-dasharray:none" /></g><g
           transform="translate(422.9267,506.8902)"
           id="g280"><path
             d="M 0,0 C 1.19,-1.05 0.823,-3.927 0.223,-5.105 -1.017,-5.532 -3.516,-6.434 -4.661,-5.549 -4.292,-2.515 -1.783,-1.62 0,0"
             inkscape:connector-curvature="0"
             id="path282"
             style="fill:#f9b00f;fill-opacity:1;fill-rule:evenodd;stroke:none" /></g><g
           transform="translate(339.6819,432.9688)"
           id="g284"><path
             d="M 0,0 C 11.039,12.831 19.446,55.648 27.082,62.822 31.351,52.074 10.813,-1.05 5.106,-9.323 c -2.07,17.698 -33.618,-9.691 -38.044,-13.982 -1.518,-1.47 -5.623,-6.029 -7.893,-3.494 -2.245,2.508 -1.891,7.469 -1.954,10.577 -0.175,8.448 -1.405,16.141 -8.716,21.328 16.368,12.623 23.237,40.9 34.811,57.069 7.06,-5.261 10.908,-7.165 15.358,-4.015 -1.382,-7.928 -32.355,-83.869 -39.292,-77.474 1.242,-2.6 4.469,-1.729 6.388,-0.486 10.756,6.966 39.425,86.599 49.15,90.565 C 24.206,74.554 1.451,3.988 0,0"
             inkscape:connector-curvature="0"
             id="path286"
             style="fill:#ffffff;fill-opacity:1;fill-rule:evenodd;stroke:none" /></g><g
           transform="translate(339.6819,432.9688)"
           id="g288"><path
             d="M 0,0 C 11.039,12.831 19.446,55.648 27.082,62.822 31.351,52.074 10.813,-1.05 5.106,-9.323 c -2.07,17.698 -33.618,-9.691 -38.044,-13.982 -1.518,-1.47 -5.623,-6.029 -7.893,-3.494 -2.245,2.508 -1.891,7.469 -1.954,10.577 -0.175,8.448 -1.405,16.141 -8.716,21.328 16.368,12.623 23.237,40.9 34.811,57.069 7.06,-5.261 10.908,-7.165 15.358,-4.015 -1.382,-7.928 -32.355,-83.869 -39.292,-77.474 1.242,-2.6 4.469,-1.729 6.388,-0.486 10.756,6.966 39.425,86.599 49.15,90.565 C 24.206,74.554 1.451,3.988 0,0 z"
             inkscape:connector-curvature="0"
             id="path290"
             style="fill:none;stroke:#1e4b9b;stroke-width:1.03299999;stroke-linecap:butt;stroke-linejoin:miter;stroke-miterlimit:10;stroke-opacity:1;stroke-dasharray:none" /></g><g
           transform="translate(339.6819,432.9688)"
           id="g292"><path
             d="M 0,0 C 11.039,12.831 19.446,55.648 27.082,62.822 31.351,52.074 10.813,-1.05 5.106,-9.323 c -2.07,17.698 -33.618,-9.691 -38.044,-13.982 -1.518,-1.47 -5.623,-6.029 -7.893,-3.494 -2.245,2.508 -1.891,7.469 -1.954,10.577 -0.175,8.448 -1.405,16.141 -8.716,21.328 16.368,12.623 23.237,40.9 34.811,57.069 7.06,-5.261 10.908,-7.165 15.358,-4.015 -1.382,-7.928 -32.355,-83.869 -39.292,-77.474 1.242,-2.6 4.469,-1.729 6.388,-0.486 10.756,6.966 39.425,86.599 49.15,90.565 C 24.206,74.554 1.451,3.988 0,0"
             inkscape:connector-curvature="0"
             id="path294"
             style="fill:#f9b00f;fill-opacity:1;fill-rule:evenodd;stroke:none" /></g><g
           transform="translate(420.7069,478.6983)"
           id="g296"><path
             d="M 0,0 C 1.224,-8.582 -1.843,-17.692 1.111,-25.973 1.323,-21.087 2.876,-3.381 4.884,0 10.268,-0.018 15.311,-0.376 20.2,-0.888 c 2.241,-7.718 1.063,-17.55 4.885,-23.753 0.343,5.742 -1.931,15.828 -0.222,23.087 2.436,-0.711 6.1,1.1 8.016,-1.133 1.633,-1.903 2.22,-5.234 2.981,-7.579 2.118,-6.531 3.469,-13.33 4.566,-20.098 1.206,-7.442 1.919,-14.968 3.639,-22.319 1.576,-6.733 5.69,-13.489 4.994,-20.573 -3.055,-0.987 -11.927,3.475 -13.247,5.354 -1.71,2.432 -5.673,16.089 -7.62,20.619 -0.899,-5.907 2.667,-12.553 3.775,-19.092 -3.528,-0.371 -7.639,0.591 -11.544,0 -2.277,8.379 -3.06,18.252 -4.662,27.305 -2.564,-2.436 1.689,-22.868 2.442,-27.083 -3.575,-2.802 -12.645,-3.799 -16.871,-0.887 -0.572,7.749 -0.498,15.323 -1.109,22.642 -2.513,-6.509 -0.672,-14.574 -0.888,-22.421 -5.02,-0.82 -10.416,-3.55 -15.984,-1.776 -0.688,10.777 1.437,19.218 1.554,29.303 -2.904,-2.515 -5.052,-24.219 -5.177,-28.415 -5.355,1.895 -11.153,0.351 -17.021,-0.888 1.965,7.136 4.924,13.279 5.993,21.312 -1.713,-1.195 -7.122,-18.269 -7.841,-20.525 -1.755,-5.495 -9.963,-6.136 -13.914,-2.563 4.464,10.78 10.2,16.9 13.098,32.633 -5.033,-9.845 -9.907,-20.787 -15.096,-31.079 -4.794,1.314 -12.247,1.626 -16.178,-1.083 2.243,10.224 21.687,71.874 35.047,69.234 0.586,-7.647 -0.474,-14.793 -1.109,-22.865 3.231,3.112 4.36,18.023 5.993,23.309 3.074,-0.457 6.373,0.215 8.879,-0.444 -0.883,-9.772 -4.306,-17.006 -4.883,-27.083 3.681,8.232 5,18.827 8.435,27.305 C -12.576,0.144 -6.288,0.484 0,0"
             inkscape:connector-curvature="0"
             id="path298"
             style="fill:#ffffff;fill-opacity:1;fill-rule:evenodd;stroke:none" /></g><g
           transform="translate(420.7069,478.6983)"
           id="g300"><path
             d="M 0,0 C 1.224,-8.582 -1.843,-17.692 1.111,-25.973 1.323,-21.087 2.876,-3.381 4.884,0 10.268,-0.018 15.311,-0.376 20.2,-0.888 c 2.241,-7.718 1.063,-17.55 4.885,-23.753 0.343,5.742 -1.931,15.828 -0.222,23.087 2.436,-0.711 6.1,1.1 8.016,-1.133 1.633,-1.903 2.22,-5.234 2.981,-7.579 2.118,-6.531 3.469,-13.33 4.566,-20.098 1.206,-7.442 1.919,-14.968 3.639,-22.319 1.576,-6.733 5.69,-13.489 4.994,-20.573 -3.055,-0.987 -11.927,3.475 -13.247,5.354 -1.71,2.432 -5.673,16.089 -7.62,20.619 -0.899,-5.907 2.667,-12.553 3.775,-19.092 -3.528,-0.371 -7.639,0.591 -11.544,0 -2.277,8.379 -3.06,18.252 -4.662,27.305 -2.564,-2.436 1.689,-22.868 2.442,-27.083 -3.575,-2.802 -12.645,-3.799 -16.871,-0.887 -0.572,7.749 -0.498,15.323 -1.109,22.642 -2.513,-6.509 -0.672,-14.574 -0.888,-22.421 -5.02,-0.82 -10.416,-3.55 -15.984,-1.776 -0.688,10.777 1.437,19.218 1.554,29.303 -2.904,-2.515 -5.052,-24.219 -5.177,-28.415 -5.355,1.895 -11.153,0.351 -17.021,-0.888 1.965,7.136 4.924,13.279 5.993,21.312 -1.713,-1.195 -7.122,-18.269 -7.841,-20.525 -1.755,-5.495 -9.963,-6.136 -13.914,-2.563 4.464,10.78 10.2,16.9 13.098,32.633 -5.033,-9.845 -9.907,-20.787 -15.096,-31.079 -4.794,1.314 -12.247,1.626 -16.178,-1.083 2.243,10.224 21.687,71.874 35.047,69.234 0.586,-7.647 -0.474,-14.793 -1.109,-22.865 3.231,3.112 4.36,18.023 5.993,23.309 3.074,-0.457 6.373,0.215 8.879,-0.444 -0.883,-9.772 -4.306,-17.006 -4.883,-27.083 3.681,8.232 5,18.827 8.435,27.305 C -12.576,0.144 -6.288,0.484 0,0 z"
             inkscape:connector-curvature="0"
             id="path302"
             style="fill:none;stroke:#1e4b9b;stroke-width:1.03299999;stroke-linecap:butt;stroke-linejoin:miter;stroke-miterlimit:10;stroke-opacity:1;stroke-dasharray:none" /></g><g
           transform="translate(420.7069,478.6983)"
           id="g304"><path
             d="M 0,0 C 1.224,-8.582 -1.843,-17.692 1.111,-25.973 1.323,-21.087 2.876,-3.381 4.884,0 10.268,-0.018 15.311,-0.376 20.2,-0.888 c 2.241,-7.718 1.063,-17.55 4.885,-23.753 0.343,5.742 -1.931,15.828 -0.222,23.087 2.436,-0.711 6.1,1.1 8.016,-1.133 1.633,-1.903 2.22,-5.234 2.981,-7.579 2.118,-6.531 3.469,-13.33 4.566,-20.098 1.206,-7.442 1.919,-14.968 3.639,-22.319 1.576,-6.733 5.69,-13.489 4.994,-20.573 -3.055,-0.987 -11.927,3.475 -13.247,5.354 -1.71,2.432 -5.673,16.089 -7.62,20.619 -0.899,-5.907 2.667,-12.553 3.775,-19.092 -3.528,-0.371 -7.639,0.591 -11.544,0 -2.277,8.379 -3.06,18.252 -4.662,27.305 -2.564,-2.436 1.689,-22.868 2.442,-27.083 -3.575,-2.802 -12.645,-3.799 -16.871,-0.887 -0.572,7.749 -0.498,15.323 -1.109,22.642 -2.513,-6.509 -0.672,-14.574 -0.888,-22.421 -5.02,-0.82 -10.416,-3.55 -15.984,-1.776 -0.688,10.777 1.437,19.218 1.554,29.303 -2.904,-2.515 -5.052,-24.219 -5.177,-28.415 -5.355,1.895 -11.153,0.351 -17.021,-0.888 1.965,7.136 4.924,13.279 5.993,21.312 -1.713,-1.195 -7.122,-18.269 -7.841,-20.525 -1.755,-5.495 -9.963,-6.136 -13.914,-2.563 4.464,10.78 10.2,16.9 13.098,32.633 -5.033,-9.845 -9.907,-20.787 -15.096,-31.079 -4.794,1.314 -12.247,1.626 -16.178,-1.083 2.243,10.224 21.687,71.874 35.047,69.234 0.586,-7.647 -0.474,-14.793 -1.109,-22.865 3.231,3.112 4.36,18.023 5.993,23.309 3.074,-0.457 6.373,0.215 8.879,-0.444 -0.883,-9.772 -4.306,-17.006 -4.883,-27.083 3.681,8.232 5,18.827 8.435,27.305 C -12.576,0.144 -6.288,0.484 0,0"
             inkscape:connector-curvature="0"
             id="path306"
             style="fill:#f9b00f;fill-opacity:1;fill-rule:evenodd;stroke:none" /></g><g
           transform="translate(335.2422,422.0918)"
           id="g308"><path
             d="m 0,0 c 2.636,0.482 4.97,-0.594 5.294,-3.44 0.688,-6.054 -10.003,-22.249 -16.609,-24.828 -3.009,-1.176 -6.005,1.064 -5.844,4.241 0.167,3.302 3.93,8.08 5.548,10.815 C -8.211,-7.461 -7.674,-1.405 0,0"
             inkscape:connector-curvature="0"
             id="path310"
             style="fill:#ffffff;fill-opacity:1;fill-rule:evenodd;stroke:none" /></g><g
           transform="translate(335.2422,422.0918)"
           id="g312"><path
             d="m 0,0 c 2.636,0.482 4.97,-0.594 5.294,-3.44 0.688,-6.054 -10.003,-22.249 -16.609,-24.828 -3.009,-1.176 -6.005,1.064 -5.844,4.241 0.167,3.302 3.93,8.08 5.548,10.815 C -8.211,-7.461 -7.674,-1.405 0,0 z"
             inkscape:connector-curvature="0"
             id="path314"
             style="fill:none;stroke:#1e4b9b;stroke-width:1.03299999;stroke-linecap:butt;stroke-linejoin:miter;stroke-miterlimit:10;stroke-opacity:1;stroke-dasharray:none" /></g><g
           transform="translate(335.2422,422.0918)"
           id="g316"><path
             d="m 0,0 c 2.636,0.482 4.97,-0.594 5.294,-3.44 0.688,-6.054 -10.003,-22.249 -16.609,-24.828 -3.009,-1.176 -6.005,1.064 -5.844,4.241 0.167,3.302 3.93,8.08 5.548,10.815 C -8.211,-7.461 -7.674,-1.405 0,0"
             inkscape:connector-curvature="0"
             id="path318"
             style="fill:#f9b00f;fill-opacity:1;fill-rule:evenodd;stroke:none" /></g><g
           transform="translate(464.6598,376.8064)"
           id="g320"><path
             d="m 0,0 c 2.653,3.538 -0.292,19.477 -0.665,24.418 2.566,-1.153 3.816,-4.25 4.67,-6.729 4.613,-13.374 0.354,-23.643 3.099,-35.671 -0.148,-1.098 -2.219,2.349 -3.365,2.987 0.726,-6.165 9.323,-10.189 8.027,-17.638 -1.161,-0.444 -3.052,-0.232 -3.774,0.444 1.097,5.156 -1.266,6.282 -3.108,8.214 1.439,-2.511 2.491,-5.86 1.11,-8.436 -1.008,-1.878 -5.69,-2.446 -7.547,-2.663 -6.562,-0.768 -7.259,2.633 -7.326,9.545 -1.95,-2.366 -1.427,-9.268 0.672,-11.165 0.946,-0.855 2.406,-1.262 3.101,-2.376 -2.25,-5.675 -0.055,-11.75 0.444,-17.76 -2.538,-1.038 -6.303,-1.723 -7.829,1.248 -2.304,4.487 0.175,12.009 -0.712,18.472 -0.287,2.086 -1.456,4.069 -2.198,6.027 -1.622,4.276 -4.833,7.776 -7.375,11.515 -5.429,7.987 -11.461,15.775 -15.669,24.513 -1.791,3.718 -8.594,21.377 -5.064,24.136 4.28,-15.996 10.754,-31.423 22.938,-39.514 -9.313,11.371 -18.323,25.262 -15.119,38.792 0.648,2.733 6.811,1.131 8.83,2.177 5.911,3.065 11.946,0.821 12.275,0.723 2.529,-0.751 6.861,-1.684 8.507,-3.945 C -0.675,19.891 -0.547,8.726 0,0"
             inkscape:connector-curvature="0"
             id="path322"
             style="fill:#ffffff;fill-opacity:1;fill-rule:evenodd;stroke:none" /></g><g
           transform="translate(351.2248,347.9474)"
           id="g324"><path
             d="M 0,0 C 5.973,-1.805 9.006,4.422 5.994,8.435 6.252,1.858 4.553,1.235 0,0 m 6.66,34.63 c 3.266,7.168 5.861,15.005 10.877,20.423 8.063,-1.104 11.948,2.599 18.993,3.232 2.571,-6.039 -0.78,-13.242 -1.678,-16.329 2.41,1.559 5.066,10.324 6.882,15.984 7.531,-1.583 4.469,-12.905 2.23,-17.521 C 39.032,30.255 22.474,14.151 20.424,6.659 19.8,4.387 20.597,1.774 19.274,-0.3 c -1.141,-1.79 -2.809,-3.183 -3.941,-4.983 -1.194,-1.9 -0.61,-3.918 0.007,-5.925 1.68,-5.46 -0.204,-15.443 -2.722,-18.704 -0.621,-0.804 -5.031,0.027 -6.304,0.387 2.361,7.575 -0.276,16.231 0.597,19.324 1.874,6.649 7.946,8.221 5.645,15.379 -1.97,6.127 -1.154,5.157 -1.678,11.472 C 6.436,8.606 13.861,5.517 8.121,-2.18 6.524,-4.322 5.685,-6.342 4.218,-8.56 c -1.773,4.389 -7.462,5.809 -14.775,5.674 1.254,5.582 -0.119,9.559 6.55,16.046 6.808,6.621 5.615,9.91 9.335,16.587 -3.865,-2.351 -5.565,-9.975 -9.324,-12.433 0.587,6.877 0.297,13.816 1.141,20.671 0.811,6.587 3.278,13.144 6.521,18.923 1.256,2.234 2.339,4.063 5.056,2.7 C 14.615,56.652 6.596,40.478 6.66,34.63"
             inkscape:connector-curvature="0"
             id="path326"
             style="fill:#ffffff;fill-opacity:1;fill-rule:evenodd;stroke:none" /></g><g
           transform="translate(341.2357,342.6198)"
           id="g328"><path
             d="m 0,0 c 6.286,0.465 11.309,-0.576 13.553,-6.972 1.872,-5.337 1.959,-11.746 0.371,-17.165 -0.994,-3.396 -2.976,-6.418 -4.777,-9.429 -5.939,-9.923 -10.06,-23.243 -12.83,-34.357 -1.059,-4.253 -1.303,-12.51 -6.687,-13.531 -3.459,-0.654 -11.596,-0.027 -13.275,3.876 -1.113,2.59 0.86,6.143 1.991,8.386 5.717,11.333 6.621,21.453 6.484,34.087 -0.081,7.588 0.784,14.77 3.393,21.926 1.14,3.125 2.457,6.261 4.297,9.045 C -5.368,-0.942 -3.663,-0.27 0,0"
             inkscape:connector-curvature="0"
             id="path330"
             style="fill:#ffffff;fill-opacity:1;fill-rule:evenodd;stroke:none" /></g><g
           transform="translate(341.2357,342.6198)"
           id="g332"><path
             d="m 0,0 c 6.286,0.465 11.309,-0.576 13.553,-6.972 1.872,-5.337 1.959,-11.746 0.371,-17.165 -0.994,-3.396 -2.976,-6.418 -4.777,-9.429 -5.939,-9.923 -10.06,-23.243 -12.83,-34.357 -1.059,-4.253 -1.303,-12.51 -6.687,-13.531 -3.459,-0.654 -11.596,-0.027 -13.275,3.876 -1.113,2.59 0.86,6.143 1.991,8.386 5.717,11.333 6.621,21.453 6.484,34.087 -0.081,7.588 0.784,14.77 3.393,21.926 1.14,3.125 2.457,6.261 4.297,9.045 C -5.368,-0.942 -3.663,-0.27 0,0 z"
             inkscape:connector-curvature="0"
             id="path334"
             style="fill:none;stroke:#1e4b9b;stroke-width:1.03299999;stroke-linecap:butt;stroke-linejoin:miter;stroke-miterlimit:10;stroke-opacity:1;stroke-dasharray:none" /></g><g
           transform="translate(341.2357,342.6198)"
           id="g336"><path
             d="m 0,0 c 6.286,0.465 11.309,-0.576 13.553,-6.972 1.872,-5.337 1.959,-11.746 0.371,-17.165 -0.994,-3.396 -2.976,-6.418 -4.777,-9.429 -5.939,-9.923 -10.06,-23.243 -12.83,-34.357 -1.059,-4.253 -1.303,-12.51 -6.687,-13.531 -3.459,-0.654 -11.596,-0.027 -13.275,3.876 -1.113,2.59 0.86,6.143 1.991,8.386 5.717,11.333 6.621,21.453 6.484,34.087 -0.081,7.588 0.784,14.77 3.393,21.926 1.14,3.125 2.457,6.261 4.297,9.045 C -5.368,-0.942 -3.663,-0.27 0,0"
             inkscape:connector-curvature="0"
             id="path338"
             style="fill:#f9b00f;fill-opacity:1;fill-rule:evenodd;stroke:none" /></g><g
           transform="translate(481.3134,270.2234)"
           id="g340"><path
             d="m 0,0 c -0.87,3.583 -1.455,7.712 -3.312,11.727 -1.592,3.443 -3.605,6.671 -5.37,10.024 -1.991,3.781 -3.493,7.758 -4.967,11.762 -2.589,7.031 -5.11,13.531 -6.459,20.941 -1.194,6.566 -1.387,13.065 5.68,15.961 5.404,2.214 10.738,2.393 14.434,-2.693 C 3.474,62.95 4.684,56.695 6.374,51.163 8.69,43.586 10.092,36.64 10.041,28.7 9.99,20.64 10.165,13.251 13.198,5.661 14.359,2.758 18.676,-3.24 15.186,-5.829 13.852,-6.818 12.152,-7.272 10.365,-7.469 3.166,-8.257 1.763,-7.261 0,0"
             inkscape:connector-curvature="0"
             id="path342"
             style="fill:#ffffff;fill-opacity:1;fill-rule:evenodd;stroke:none" /></g><g
           transform="translate(481.3134,270.2234)"
           id="g344"><path
             d="m 0,0 c -0.87,3.583 -1.455,7.712 -3.312,11.727 -1.592,3.443 -3.605,6.671 -5.37,10.024 -1.991,3.781 -3.493,7.758 -4.967,11.762 -2.589,7.031 -5.11,13.531 -6.459,20.941 -1.194,6.566 -1.387,13.065 5.68,15.961 5.404,2.214 10.738,2.393 14.434,-2.693 C 3.474,62.95 4.684,56.695 6.374,51.163 8.69,43.586 10.092,36.64 10.041,28.7 9.99,20.64 10.165,13.251 13.198,5.661 14.359,2.758 18.676,-3.24 15.186,-5.829 13.852,-6.818 12.152,-7.272 10.365,-7.469 3.166,-8.257 1.763,-7.261 0,0 z"
             inkscape:connector-curvature="0"
             id="path346"
             style="fill:none;stroke:#1e4b9b;stroke-width:1.03299999;stroke-linecap:butt;stroke-linejoin:miter;stroke-miterlimit:10;stroke-opacity:1;stroke-dasharray:none" /></g><g
           transform="translate(481.3134,270.2234)"
           id="g348"><path
             d="m 0,0 c -0.87,3.583 -1.455,7.712 -3.312,11.727 -1.592,3.443 -3.605,6.671 -5.37,10.024 -1.991,3.781 -3.493,7.758 -4.967,11.762 -2.589,7.031 -5.11,13.531 -6.459,20.941 -1.194,6.566 -1.387,13.065 5.68,15.961 5.404,2.214 10.738,2.393 14.434,-2.693 C 3.474,62.95 4.684,56.695 6.374,51.163 8.69,43.586 10.092,36.64 10.041,28.7 9.99,20.64 10.165,13.251 13.198,5.661 14.359,2.758 18.676,-3.24 15.186,-5.829 13.852,-6.818 12.152,-7.272 10.365,-7.469 3.166,-8.257 1.763,-7.261 0,0"
             inkscape:connector-curvature="0"
             id="path350"
             style="fill:#f9b00f;fill-opacity:1;fill-rule:evenodd;stroke:none" /></g><g
           transform="translate(471.3199,289.7871)"
           id="g352"><path
             d="m 0,0 c -4.343,-1.366 -6.334,5.02 -8.108,7.791 -3.298,5.15 -6.911,10.438 -8.541,16.405 1.853,-0.494 5.435,2.221 6.755,0.236 0.58,-0.871 0.668,-2.137 1.039,-3.11 C -6.121,14.158 -2.601,7.267 0,0"
             inkscape:connector-curvature="0"
             id="path354"
             style="fill:#ffffff;fill-opacity:1;fill-rule:evenodd;stroke:none" /></g><g
           transform="translate(361.4367,312.651)"
           id="g356"><path
             d="m 0,0 c -3.511,-8.994 -9.786,-15.225 -13.098,-24.418 -1.689,0.012 -3.257,0.146 -4.217,0.888 1.914,7.098 7.018,17.44 11.197,23.752 C -5.165,1.66 -1.424,-0.113 0,0"
             inkscape:connector-curvature="0"
             id="path358"
             style="fill:#ffffff;fill-opacity:1;fill-rule:evenodd;stroke:none" /></g><g
           transform="translate(477.9793,275.3584)"
           id="g360"><path
             d="m 0,0 c -1.574,-1.67 -4.081,-0.254 -5.549,0.664 -0.142,3.338 -1.203,5.754 -1.998,8.437 0.844,0.635 2.302,0.657 3.551,0.888 C -2.432,6.89 -0.899,3.762 0,0"
             inkscape:connector-curvature="0"
             id="path362"
             style="fill:#ffffff;fill-opacity:1;fill-rule:evenodd;stroke:none" /></g><g
           transform="translate(347.6731,283.7936)"
           id="g364"><path
             d="m 0,0 c -1.013,-2.286 -1.523,-5.009 -1.515,-7.797 -1.41,-0.387 -4.281,-0.331 -5.81,0.914 0.508,2.748 1.23,5.282 2.441,7.327 C -3.252,-0.559 -0.232,-0.556 0,0"
             inkscape:connector-curvature="0"
             id="path366"
             style="fill:#ffffff;fill-opacity:1;fill-rule:evenodd;stroke:none" /></g><g
           transform="translate(346.3412,270.9173)"
           id="g368"><path
             d="M 0,0 C 0.304,-0.732 0.297,-1.774 0.444,-2.664 -2.29,-4.46 -5.173,-4.206 -7.515,-2.855 -7.568,-2.076 -7.584,0.201 -7.13,0.162 -5.19,-0.003 -2.134,-1.279 0,0"
             inkscape:connector-curvature="0"
             id="path370"
             style="fill:#ffffff;fill-opacity:1;fill-rule:evenodd;stroke:none" /></g><g
           transform="translate(479.3119,269.5854)"
           id="g372"><path
             d="M 0,0 C 0.484,-0.847 0.488,-2.176 0.665,-3.33 -1.248,-4.109 -5.054,-3.994 -6.216,-2.664 -6.39,-1.814 -6.665,0.398 -6.248,0.278 -4.188,-0.315 -2.181,-0.867 0,0"
             inkscape:connector-curvature="0"
             id="path374"
             style="fill:#ffffff;fill-opacity:1;fill-rule:evenodd;stroke:none" /></g><g
           transform="translate(339.9038,249.6057)"
           id="g376"><path
             d="m 0,0 c -0.456,4.091 0.612,9.416 1.585,12.815 1.88,-0.402 4.697,0.07 6.406,1.171 C 9.317,10.995 13.156,6.687 9.642,3.784 6.945,1.554 3.078,1.461 0,0"
             inkscape:connector-curvature="0"
             id="path378"
             style="fill:#ffffff;fill-opacity:1;fill-rule:evenodd;stroke:none" /></g><g
           transform="translate(336.5741,262.482)"
           id="g380"><path
             d="m 0,0 c -0.26,-3.522 -2.201,-7.264 -2.442,-11.543 -3.954,3.963 -10.284,5.551 -18.425,5.328 1.09,1.267 1.716,3.087 3.351,3.795 C -5.831,-5.666 -2.903,-3.527 0,0"
             inkscape:connector-curvature="0"
             id="path382"
             style="fill:#ffffff;fill-opacity:1;fill-rule:evenodd;stroke:none" /></g><g
           transform="translate(471.9858,262.482)"
           id="g384"><path
             d="M 0,0 C 1.38,-0.16 3.183,-9.419 2.886,-10.655 -0.388,-9.073 -2.092,-3.806 0,0"
             inkscape:connector-curvature="0"
             id="path386"
             style="fill:#ffffff;fill-opacity:1;fill-rule:evenodd;stroke:none" /></g><g
           transform="translate(500.622,258.9304)"
           id="g388"><path
             d="m 0,0 c -9.312,0.701 -15.504,-3.365 -20.422,-7.769 -0.543,2.862 -1.692,6.299 -1.555,9.101 1.916,0.19 2.725,2.093 4.833,1.23 C -13.991,1.27 -9.595,1.417 -6.249,2.248 -5.356,2.47 -4.196,3.591 -3.33,3.552 -2.076,3.494 0.138,1.35 0,0"
             inkscape:connector-curvature="0"
             id="path390"
             style="fill:#ffffff;fill-opacity:1;fill-rule:evenodd;stroke:none" /></g><g
           transform="translate(507.2814,251.383)"
           id="g392"><path
             d="m 0,0 c -3.812,-0.495 -7.758,-1.741 -10.423,-4.657 -1.182,-1.294 -1.06,-0.86 -2.784,-0.609 -3.464,0.503 -5.591,-0.503 -8.191,-2.606 C -30.658,0.209 -2.148,8.541 0,0"
             inkscape:connector-curvature="0"
             id="path394"
             style="fill:#ffffff;fill-opacity:1;fill-rule:evenodd;stroke:none" /></g><g
           transform="translate(331.6906,244.7236)"
           id="g396"><path
             d="M 0,0 C -0.76,-1.313 -1.795,-2.349 -3.108,-3.108 -4.602,0.176 -8.309,5.161 -19.009,3.169 -20.584,2.648 -22.595,3.227 -21.484,5.308 -18.386,11.108 -0.959,8.379 0,0"
             inkscape:connector-curvature="0"
             id="path398"
             style="fill:#ffffff;fill-opacity:1;fill-rule:evenodd;stroke:none" /></g><g
           transform="translate(470.8759,252.2709)"
           id="g400"><path
             d="m 0,0 c 1.649,-2.427 4.777,-2.837 7.144,-4.248 2.68,-1.601 3.05,-4.872 5.288,-6.851 -1.451,0.251 -2.633,1.429 -3.773,2.268 C 7.229,-7.78 5.688,-7.08 4.076,-6.367 1.531,-5.242 -2.245,-3.243 0,0"
             inkscape:connector-curvature="0"
             id="path402"
             style="fill:#ffffff;fill-opacity:1;fill-rule:evenodd;stroke:none" /></g><g
           transform="translate(470.8759,252.2709)"
           id="g404"><path
             d="m 0,0 c 1.649,-2.427 4.777,-2.837 7.144,-4.248 2.68,-1.601 3.05,-4.872 5.288,-6.851 -1.451,0.251 -2.633,1.429 -3.773,2.268 C 7.229,-7.78 5.688,-7.08 4.076,-6.367 1.531,-5.242 -2.245,-3.243 0,0 z"
             inkscape:connector-curvature="0"
             id="path406"
             style="fill:none;stroke:#1e4b9b;stroke-width:1.03299999;stroke-linecap:butt;stroke-linejoin:miter;stroke-miterlimit:10;stroke-opacity:1;stroke-dasharray:none" /></g><g
           transform="translate(470.8759,252.2709)"
           id="g408"><path
             d="m 0,0 c 1.649,-2.427 4.777,-2.837 7.144,-4.248 2.68,-1.601 3.05,-4.872 5.288,-6.851 -1.451,0.251 -2.633,1.429 -3.773,2.268 C 7.229,-7.78 5.688,-7.08 4.076,-6.367 1.531,-5.242 -2.245,-3.243 0,0"
             inkscape:connector-curvature="0"
             id="path410"
             style="fill:#f9b00f;fill-opacity:1;fill-rule:evenodd;stroke:none" /></g><g
           transform="translate(513.7196,245.8335)"
           id="g412"><path
             d="M 0,0 C -3.806,-1.172 -9.383,-1.476 -13.481,-1.967 -11.895,1.154 -2.602,3.735 0,0"
             inkscape:connector-curvature="0"
             id="path414"
             style="fill:#ffffff;fill-opacity:1;fill-rule:evenodd;stroke:none" /></g><g
           transform="translate(308.8251,242.5038)"
           id="g416"><path
             d="m 0,0 c -1.769,-0.047 -3.824,0.591 -5.48,-0.296 -1.053,-0.564 -2.786,0.95 -4.509,-0.148 1.674,1.45 3.441,3.269 5.71,3.696 C -2.501,3.585 0.51,2.28 0,0"
             inkscape:connector-curvature="0"
             id="path418"
             style="fill:#ffffff;fill-opacity:1;fill-rule:evenodd;stroke:none" /></g><g
           transform="translate(516.6531,244.1664)"
           id="g420"><path
             d="M 0,0 C 3.495,1.007 4.821,-4.198 1.133,-3.732 1.53,-1.591 0.552,-0.485 0,0"
             inkscape:connector-curvature="0"
             id="path422"
             style="fill:#ffffff;fill-opacity:1;fill-rule:evenodd;stroke:none" /></g><g
           transform="translate(322.1454,237.1762)"
           id="g424"><path
             d="m 0,0 c -1.938,2.952 -4.354,6.083 -9.324,5.328 1.372,2.899 6.884,2.609 9.139,1.12 C 2.149,4.907 3.765,0.878 0,0"
             inkscape:connector-curvature="0"
             id="path426"
             style="fill:#ffffff;fill-opacity:1;fill-rule:evenodd;stroke:none" /></g><g
           transform="translate(514.6539,239.4182)"
           id="g428"><path
             d="M 0,0 C -1.415,0.582 -1.158,2.861 -1.822,4.196 2.679,5.336 2.773,0.448 0,0"
             inkscape:connector-curvature="0"
             id="path430"
             style="fill:#ffffff;fill-opacity:1;fill-rule:evenodd;stroke:none" /></g><g
           transform="translate(509.28,243.3918)"
           id="g432"><path
             d="M 0,0 C 4.214,0.829 4.074,-6.22 0.666,-4.662 1.156,-3.067 -0.487,-1.504 0,0"
             inkscape:connector-curvature="0"
             id="path434"
             style="fill:#ffffff;fill-opacity:1;fill-rule:evenodd;stroke:none" /></g><g
           transform="translate(504.6177,238.0642)"
           id="g436"><path
             d="M 0,0 C 0.395,3.061 -1.238,3.453 -0.888,4.884 3.711,6.695 5.228,-1.404 0,0"
             inkscape:connector-curvature="0"
             id="path438"
             style="fill:#ffffff;fill-opacity:1;fill-rule:evenodd;stroke:none" /></g><g
           transform="translate(495.2872,237.5879)"
           id="g440"><path
             d="M 0,0 C -1.671,0.629 -3.267,1.457 -4.552,2.155 -4.376,3.683 -0.18,6.077 2.83,5.605 11.157,4.299 7.725,-2.911 0,0"
             inkscape:connector-curvature="0"
             id="path442"
             style="fill:#ffffff;fill-opacity:1;fill-rule:evenodd;stroke:none" /></g><g
           transform="translate(307.86,240.7103)"
           id="g444"><path
             d="M 0,0 C -0.455,-1.539 -1.221,-3.506 -0.634,-5.405 -7.772,-5.316 -4.314,2.304 0,0"
             inkscape:connector-curvature="0"
             id="path446"
             style="fill:#ffffff;fill-opacity:1;fill-rule:evenodd;stroke:none" /></g><g
           transform="translate(302.3583,240.9499)"
           id="g448"><path
             d="M 0,0 C -0.648,-1.094 -0.67,-3.574 -0.859,-5.106 -4.763,-5.402 -4.182,0.756 0,0"
             inkscape:connector-curvature="0"
             id="path450"
             style="fill:#ffffff;fill-opacity:1;fill-rule:evenodd;stroke:none" /></g><g
           transform="translate(298.2979,240.6485)"
           id="g452"><path
             d="M 0,0 C -0.893,-1.107 -1.137,-3.649 -0.794,-4.584 -3.741,-5.436 -5.305,1.186 0,0"
             inkscape:connector-curvature="0"
             id="path454"
             style="fill:#ffffff;fill-opacity:1;fill-rule:evenodd;stroke:none" /></g><g
           transform="translate(319.2589,237.1762)"
           id="g456"><path
             d="m 0,0 c -1.641,-2.956 -9.984,-4.578 -10.553,-1.058 -0.922,5.696 6.135,5.361 7.958,4.085 C -1.464,2.236 -0.989,0.91 0,0"
             inkscape:connector-curvature="0"
             id="path458"
             style="fill:#ffffff;fill-opacity:1;fill-rule:evenodd;stroke:none" /></g><g
           transform="translate(294.0965,240.4574)"
           id="g460"><path
             d="M 0,0 C 0.124,-0.814 -1.011,-2.667 -0.46,-3.837 -2.415,-3.437 -3.657,0.437 0,0"
             inkscape:connector-curvature="0"
             id="path462"
             style="fill:#ffffff;fill-opacity:1;fill-rule:evenodd;stroke:none" /></g><g
           transform="translate(485.3047,238.9521)"
           id="g464"><path
             d="m 0,0 c 0.504,-0.354 8.405,-3.252 10.679,-4.247 2.511,-1.1 23.668,2.765 26.393,3.803 C 38.622,-8.55 14.242,-8.54 8.726,-7.641 4.316,-6.924 2.502,-3.219 0,0"
             inkscape:connector-curvature="0"
             id="path466"
             style="fill:#ffffff;fill-opacity:1;fill-rule:evenodd;stroke:none" /></g><g
           transform="translate(485.3047,238.9521)"
           id="g468"><path
             d="m 0,0 c 0.504,-0.354 8.405,-3.252 10.679,-4.247 2.511,-1.1 23.668,2.765 26.393,3.803 C 38.622,-8.55 14.242,-8.54 8.726,-7.641 4.316,-6.924 2.502,-3.219 0,0 z"
             inkscape:connector-curvature="0"
             id="path470"
             style="fill:none;stroke:#1e4b9b;stroke-width:1.03299999;stroke-linecap:butt;stroke-linejoin:miter;stroke-miterlimit:10;stroke-opacity:1;stroke-dasharray:none" /></g><g
           transform="translate(485.3047,238.9521)"
           id="g472"><path
             d="m 0,0 c 0.504,-0.354 8.405,-3.252 10.679,-4.247 2.511,-1.1 23.668,2.765 26.393,3.803 C 38.622,-8.55 14.242,-8.54 8.726,-7.641 4.316,-6.924 2.502,-3.219 0,0"
             inkscape:connector-curvature="0"
             id="path474"
             style="fill:#f9b00f;fill-opacity:1;fill-rule:evenodd;stroke:none" /></g><g
           transform="translate(392.7366,696.2457)"
           id="g476"><path
             d="m 0,0 3.108,0 c 0.038,-1.767 0.348,-3.783 0.502,-5.701 0.22,0.232 1.299,4.116 1.94,5.257 0.843,-0.044 1.579,-0.196 2.219,-0.444 -1.355,-6.911 -3.418,-13.577 -4.013,-20.621 -0.223,-2.653 -1.824,-4.593 -4.265,-5.227 -12.331,-3.207 -27.23,-12.65 -21.192,-33.595 1.331,-4.616 -0.22,-10.567 4.728,-17.676 5.099,-7.326 6.534,-3.646 7.328,-13.853 0.492,-6.324 -4.441,-21.804 -13.441,-19.134 3.94,9.572 -0.669,20.663 -5.803,26.307 0.634,0.955 2.672,2.216 3.523,3.359 -1.82,-0.401 -3.046,-1.408 -4.817,-1.856 -0.606,0.937 -3.354,3.728 -3.948,5.259 -0.219,0.567 2.45,2.387 3.407,3.621 -1.152,-0.232 -3.285,-1.417 -4.794,-1.838 -3.401,3.246 -6.602,9.812 -7.802,11.554 0.611,0.754 3.812,2.484 4.667,3.31 -1.846,-0.513 -4.509,-1.061 -6.008,-1.264 -0.464,0.632 -1.317,4.275 -1.392,4.793 0,0 6.114,1.987 7.953,3.049 -2.945,-0.46 -5.556,-0.799 -8.739,-1.019 -1.55,6.387 -1.781,15.504 0.494,21.092 1.331,0 4.149,-0.721 5.482,-0.721 -1.018,0.853 -3.926,1.934 -4.436,2.838 0.413,2.04 1.535,4.438 2.455,5.427 1.116,0.136 2.979,-0.814 3.462,-0.606 -0.507,0.581 -1.94,2.029 -2.089,2.616 -0.036,0.611 0.884,2.197 1.957,3.318 1.826,-0.971 2.533,-1.908 4.218,-2.442 -0.262,0.956 -2.499,2.931 -2.773,4.22 0.554,1.916 6.586,7.504 8.323,8.545 1.394,-0.533 2.456,-2.609 3.693,-3.452 0.059,0.84 -1.603,3.736 -1.878,4.92 1.882,1.847 3.884,2.964 6.986,4.316 0.726,-0.207 2.206,-3.04 3.542,-4.308 0.284,0.723 -1.202,5.121 -1.032,5.607 0.387,-0.029 1.995,0.945 2.155,0.679 1.293,-2.133 3.02,-5.849 3.407,-6.379 0.128,1.18 -1.021,6.584 -1.076,7.198 4.094,1.087 6.768,2.01 11.398,2.56 0.641,-2.45 1.291,-5.799 1.441,-7.256 0.538,1.083 0.601,5.17 1.11,7.547"
             inkscape:connector-curvature="0"
             id="path478"
             style="fill:#ffffff;fill-opacity:1;fill-rule:evenodd;stroke:none" /></g><g
           transform="translate(392.7366,696.2457)"
           id="g480"><path
             d="m 0,0 3.108,0 c 0.038,-1.767 0.348,-3.783 0.502,-5.701 0.22,0.232 1.299,4.116 1.94,5.257 0.843,-0.044 1.579,-0.196 2.219,-0.444 -1.355,-6.911 -3.418,-13.577 -4.013,-20.621 -0.223,-2.653 -1.824,-4.593 -4.265,-5.227 -12.331,-3.207 -27.23,-12.65 -21.192,-33.595 1.331,-4.616 -0.22,-10.567 4.728,-17.676 5.099,-7.326 6.534,-3.646 7.328,-13.853 0.492,-6.324 -4.441,-21.804 -13.441,-19.134 3.94,9.572 -0.669,20.663 -5.803,26.307 0.634,0.955 2.672,2.216 3.523,3.359 -1.82,-0.401 -3.046,-1.408 -4.817,-1.856 -0.606,0.937 -3.354,3.728 -3.948,5.259 -0.219,0.567 2.45,2.387 3.407,3.621 -1.152,-0.232 -3.285,-1.417 -4.794,-1.838 -3.401,3.246 -6.602,9.812 -7.802,11.554 0.611,0.754 3.812,2.484 4.667,3.31 -1.846,-0.513 -4.509,-1.061 -6.008,-1.264 -0.464,0.632 -1.317,4.275 -1.392,4.793 0,0 6.114,1.987 7.953,3.049 -2.945,-0.46 -5.556,-0.799 -8.739,-1.019 -1.55,6.387 -1.781,15.504 0.494,21.092 1.331,0 4.149,-0.721 5.482,-0.721 -1.018,0.853 -3.926,1.934 -4.436,2.838 0.413,2.04 1.535,4.438 2.455,5.427 1.116,0.136 2.979,-0.814 3.462,-0.606 -0.507,0.581 -1.94,2.029 -2.089,2.616 -0.036,0.611 0.884,2.197 1.957,3.318 1.826,-0.971 2.533,-1.908 4.218,-2.442 -0.262,0.956 -2.499,2.931 -2.773,4.22 0.554,1.916 6.586,7.504 8.323,8.545 1.394,-0.533 2.456,-2.609 3.693,-3.452 0.059,0.84 -1.603,3.736 -1.878,4.92 1.882,1.847 3.884,2.964 6.986,4.316 0.726,-0.207 2.206,-3.04 3.542,-4.308 0.284,0.723 -1.202,5.121 -1.032,5.607 0.387,-0.029 1.995,0.945 2.155,0.679 1.293,-2.133 3.02,-5.849 3.407,-6.379 0.128,1.18 -1.021,6.584 -1.076,7.198 4.094,1.087 6.768,2.01 11.398,2.56 0.641,-2.45 1.291,-5.799 1.441,-7.256 0.538,1.083 0.601,5.17 1.11,7.547 z"
             inkscape:connector-curvature="0"
             id="path482"
             style="fill:none;stroke:#1e4b9b;stroke-width:1.03299999;stroke-linecap:butt;stroke-linejoin:miter;stroke-miterlimit:10;stroke-opacity:1;stroke-dasharray:none" /></g><g
           transform="translate(392.7366,696.2457)"
           id="g484"><path
             d="m 0,0 3.108,0 c 0.038,-1.767 0.348,-3.783 0.502,-5.701 0.22,0.232 1.299,4.116 1.94,5.257 0.843,-0.044 1.579,-0.196 2.219,-0.444 -1.355,-6.911 -3.418,-13.577 -4.013,-20.621 -0.223,-2.653 -1.824,-4.593 -4.265,-5.227 -12.331,-3.207 -27.23,-12.65 -21.192,-33.595 1.331,-4.616 -0.22,-10.567 4.728,-17.676 5.099,-7.326 6.534,-3.646 7.328,-13.853 0.492,-6.324 -4.441,-21.804 -13.441,-19.134 3.94,9.572 -0.669,20.663 -5.803,26.307 0.634,0.955 2.672,2.216 3.523,3.359 -1.82,-0.401 -3.046,-1.408 -4.817,-1.856 -0.606,0.937 -3.354,3.728 -3.948,5.259 -0.219,0.567 2.45,2.387 3.407,3.621 -1.152,-0.232 -3.285,-1.417 -4.794,-1.838 -3.401,3.246 -6.602,9.812 -7.802,11.554 0.611,0.754 3.812,2.484 4.667,3.31 -1.846,-0.513 -4.509,-1.061 -6.008,-1.264 -0.464,0.632 -1.317,4.275 -1.392,4.793 0,0 6.114,1.987 7.953,3.049 -2.945,-0.46 -5.556,-0.799 -8.739,-1.019 -1.55,6.387 -1.781,15.504 0.494,21.092 1.331,0 4.149,-0.721 5.482,-0.721 -1.018,0.853 -3.926,1.934 -4.436,2.838 0.413,2.04 1.535,4.438 2.455,5.427 1.116,0.136 2.979,-0.814 3.462,-0.606 -0.507,0.581 -1.94,2.029 -2.089,2.616 -0.036,0.611 0.884,2.197 1.957,3.318 1.826,-0.971 2.533,-1.908 4.218,-2.442 -0.262,0.956 -2.499,2.931 -2.773,4.22 0.554,1.916 6.586,7.504 8.323,8.545 1.394,-0.533 2.456,-2.609 3.693,-3.452 0.059,0.84 -1.603,3.736 -1.878,4.92 1.882,1.847 3.884,2.964 6.986,4.316 0.726,-0.207 2.206,-3.04 3.542,-4.308 0.284,0.723 -1.202,5.121 -1.032,5.607 0.387,-0.029 1.995,0.945 2.155,0.679 1.293,-2.133 3.02,-5.849 3.407,-6.379 0.128,1.18 -1.021,6.584 -1.076,7.198 4.094,1.087 6.768,2.01 11.398,2.56 0.641,-2.45 1.291,-5.799 1.441,-7.256 0.538,1.083 0.601,5.17 1.11,7.547"
             inkscape:connector-curvature="0"
             id="path486"
             style="fill:#f9b00f;fill-opacity:1;fill-rule:evenodd;stroke:none" /></g><g
           transform="translate(293.0645,234.5125)"
           id="g488"><path
             d="m 0,0 c 0.096,0.038 18.09,-2.922 22.183,-2.13 13.1,2.537 15.823,11.15 23.843,14.358 3.699,1.48 10.388,2.182 12.578,5.974 C 62.391,14.646 53.55,12.894 51.463,12.074 48.089,10.748 44.752,9.185 41.826,7.021 39.027,4.95 36.608,2.412 33.848,0.291 28.613,-3.734 22.024,-4.922 15.539,-4.885 12.606,-4.867 -0.019,-4.809 0,0"
             inkscape:connector-curvature="0"
             id="path490"
             style="fill:#ffffff;fill-opacity:1;fill-rule:evenodd;stroke:none" /></g><g
           transform="translate(293.0645,234.5125)"
           id="g492"><path
             d="m 0,0 c 0.096,0.038 18.09,-2.922 22.183,-2.13 13.1,2.537 15.823,11.15 23.843,14.358 3.699,1.48 10.388,2.182 12.578,5.974 C 62.391,14.646 53.55,12.894 51.463,12.074 48.089,10.748 44.752,9.185 41.826,7.021 39.027,4.95 36.608,2.412 33.848,0.291 28.613,-3.734 22.024,-4.922 15.539,-4.885 12.606,-4.867 -0.019,-4.809 0,0 z"
             inkscape:connector-curvature="0"
             id="path494"
             style="fill:none;stroke:#1e4b9b;stroke-width:1.03299999;stroke-linecap:butt;stroke-linejoin:miter;stroke-miterlimit:10;stroke-opacity:1;stroke-dasharray:none" /></g><g
           transform="translate(293.0645,234.5125)"
           id="g496"><path
             d="m 0,0 c 0.096,0.038 18.09,-2.922 22.183,-2.13 13.1,2.537 15.823,11.15 23.843,14.358 3.699,1.48 10.388,2.182 12.578,5.974 C 62.391,14.646 53.55,12.894 51.463,12.074 48.089,10.748 44.752,9.185 41.826,7.021 39.027,4.95 36.608,2.412 33.848,0.291 28.613,-3.734 22.024,-4.922 15.539,-4.885 12.606,-4.867 -0.019,-4.809 0,0"
             inkscape:connector-curvature="0"
             id="path498"
             style="fill:#f9b00f;fill-opacity:1;fill-rule:evenodd;stroke:none" /></g><g
           transform="translate(576.1373,690.3973)"
           id="g500"><path
             d="m 0,0 c -30.104,-8.385 -53.632,-2.467 -53.928,-2.523 -0.227,-0.044 -21.173,-14.589 -52.065,-18.004 3.454,-6.966 5.811,-14.609 7.273,-22.155 3.333,-17.214 6.527,-34.455 10,-51.643 0.627,-3.104 1.685,-6.22 2.781,-9.188 3.725,-10.084 10.926,-23.471 22.489,-25.762 11.113,-2.202 25.075,-6.212 35.539,-10.67 8.065,8.039 19.539,16.977 29.039,23.176 9.867,6.439 11.551,21.535 11.246,32.271 -0.09,3.171 -0.273,6.464 -0.851,9.586 -3.191,17.241 -6.667,34.428 -10,51.642 C 0.061,-15.721 -0.605,-7.754 0,0 m -54.646,1.271 c -4.695,-3.209 -11.353,-6.605 -16.473,-8.83 -12.836,-5.578 -26.636,-9.001 -40.609,-9.901 4.742,-7.825 7.795,-17.007 9.517,-25.898 3.335,-17.224 6.67,-34.448 10.006,-51.671 0.673,-3.202 1.802,-6.661 2.931,-9.716 4.219,-11.421 12.145,-25.445 25.133,-28.018 11.335,-2.246 26.306,-6.559 37.048,-11.425 8.175,8.52 20.474,18.118 30.163,24.441 11.121,7.256 13.201,23.281 12.858,35.35 -0.092,3.265 -0.337,6.9 -0.908,10.132 -3.336,17.224 -6.671,34.447 -10.006,51.67 -1.723,8.896 -2.316,18.546 -0.839,27.579 -17.156,-5.657 -36.822,-7.519 -54.735,-4.505 -1.331,0.223 -2.737,0.474 -4.086,0.792"
             inkscape:connector-curvature="0"
             id="path502"
             style="fill:#ffffff;fill-opacity:1;fill-rule:evenodd;stroke:none" /></g><g
           transform="translate(576.1373,690.3973)"
           id="g504"><path
             d="m 0,0 c -30.104,-8.385 -53.632,-2.467 -53.928,-2.523 -0.227,-0.044 -21.173,-14.589 -52.065,-18.004 3.454,-6.966 5.811,-14.609 7.273,-22.155 3.333,-17.214 6.527,-34.455 10,-51.643 0.627,-3.104 1.685,-6.22 2.781,-9.188 3.725,-10.084 10.926,-23.471 22.489,-25.762 11.113,-2.202 25.075,-6.212 35.539,-10.67 8.065,8.039 19.539,16.977 29.039,23.176 9.867,6.439 11.551,21.535 11.246,32.271 -0.09,3.171 -0.273,6.464 -0.851,9.586 -3.191,17.241 -6.667,34.428 -10,51.642 C 0.061,-15.721 -0.605,-7.754 0,0 z m -54.646,1.271 c -4.695,-3.209 -11.353,-6.605 -16.473,-8.83 -12.836,-5.578 -26.636,-9.001 -40.609,-9.901 4.742,-7.825 7.795,-17.007 9.517,-25.898 3.335,-17.224 6.67,-34.448 10.006,-51.671 0.673,-3.202 1.802,-6.661 2.931,-9.716 4.219,-11.421 12.145,-25.445 25.133,-28.018 11.335,-2.246 26.306,-6.559 37.048,-11.425 8.175,8.52 20.474,18.118 30.163,24.441 11.121,7.256 13.201,23.281 12.858,35.35 -0.092,3.265 -0.337,6.9 -0.908,10.132 -3.336,17.224 -6.671,34.447 -10.006,51.67 -1.723,8.896 -2.316,18.546 -0.839,27.579 -17.156,-5.657 -36.822,-7.519 -54.735,-4.505 -1.331,0.223 -2.737,0.474 -4.086,0.792 z"
             inkscape:connector-curvature="0"
             id="path506"
             style="fill:none;stroke:#1e4b9b;stroke-width:1.03299999;stroke-linecap:butt;stroke-linejoin:miter;stroke-miterlimit:10;stroke-opacity:1;stroke-dasharray:none" /></g><g
           transform="translate(576.1373,690.3973)"
           id="g508"><path
             d="m 0,0 c -30.104,-8.385 -53.632,-2.467 -53.928,-2.523 -0.227,-0.044 -21.173,-14.589 -52.065,-18.004 3.454,-6.966 5.811,-14.609 7.273,-22.155 3.333,-17.214 6.527,-34.455 10,-51.643 0.627,-3.104 1.685,-6.22 2.781,-9.188 3.725,-10.084 10.926,-23.471 22.489,-25.762 11.113,-2.202 25.075,-6.212 35.539,-10.67 8.065,8.039 19.539,16.977 29.039,23.176 9.867,6.439 11.551,21.535 11.246,32.271 -0.09,3.171 -0.273,6.464 -0.851,9.586 -3.191,17.241 -6.667,34.428 -10,51.642 C 0.061,-15.721 -0.605,-7.754 0,0 m -54.646,1.271 c -4.695,-3.209 -11.353,-6.605 -16.473,-8.83 -12.836,-5.578 -26.636,-9.001 -40.609,-9.901 4.742,-7.825 7.795,-17.007 9.517,-25.898 3.335,-17.224 6.67,-34.448 10.006,-51.671 0.673,-3.202 1.802,-6.661 2.931,-9.716 4.219,-11.421 12.145,-25.445 25.133,-28.018 11.335,-2.246 26.306,-6.559 37.048,-11.425 8.175,8.52 20.474,18.118 30.163,24.441 11.121,7.256 13.201,23.281 12.858,35.35 -0.092,3.265 -0.337,6.9 -0.908,10.132 -3.336,17.224 -6.671,34.447 -10.006,51.67 -1.723,8.896 -2.316,18.546 -0.839,27.579 -17.156,-5.657 -36.822,-7.519 -54.735,-4.505 -1.331,0.223 -2.737,0.474 -4.086,0.792"
             inkscape:connector-curvature="0"
             id="path510"
             style="fill:#f9b00f;fill-opacity:1;fill-rule:evenodd;stroke:none" /></g><g
           transform="translate(508.2061,613.5458)"
           id="g512"><path
             d="m 0,0 -1.711,10.617 8.445,1.361 -5.138,31.878 -11.887,-1.915 0.855,-5.309 -14.1,-2.272 -2.566,15.926 66.059,10.645 2.566,-15.927 -14.099,-2.272 -0.856,5.309 -11.871,-1.913 4.575,-28.397 33.922,5.466 12.649,-6.676 1.198,-7.433 -14.1,-2.272 -0.855,5.309 -25.138,-4.051 5.137,-31.877 25.137,4.05 -0.856,5.309 14.101,2.272 1.197,-7.432 -9.911,-10.311 -30.777,-4.96 -12.648,6.676 L 14.41,2.322 0,0 z"
             inkscape:connector-curvature="0"
             id="path514"
             style="fill:#ffffff;fill-opacity:1;fill-rule:evenodd;stroke:none" /></g><g
           transform="translate(508.2061,613.5458)"
           id="g516"><path
             d="m 0,0 -1.711,10.617 8.445,1.361 -5.138,31.878 -11.887,-1.915 0.855,-5.309 -14.1,-2.272 -2.566,15.926 66.059,10.645 2.566,-15.927 -14.099,-2.272 -0.856,5.309 -11.871,-1.913 4.575,-28.397 33.922,5.466 12.649,-6.676 1.198,-7.433 -14.1,-2.272 -0.855,5.309 -25.138,-4.051 5.137,-31.877 25.137,4.05 -0.856,5.309 14.101,2.272 1.197,-7.432 -9.911,-10.311 -30.777,-4.96 -12.648,6.676 L 14.41,2.322 0,0 z"
             inkscape:connector-curvature="0"
             id="path518"
             style="fill:none;stroke:#1e4b9b;stroke-width:1.03299999;stroke-linecap:butt;stroke-linejoin:miter;stroke-miterlimit:10;stroke-opacity:1;stroke-dasharray:none" /></g><g
           transform="translate(508.2061,613.5458)"
           id="g520"><path
             d="m 0,0 -1.711,10.617 8.445,1.361 -5.138,31.878 -11.887,-1.915 0.855,-5.309 -14.1,-2.272 -2.566,15.926 66.059,10.645 2.566,-15.927 -14.099,-2.272 -0.856,5.309 -11.871,-1.913 4.575,-28.397 33.922,5.466 12.649,-6.676 1.198,-7.433 -14.1,-2.272 -0.855,5.309 -25.138,-4.051 5.137,-31.877 25.137,4.05 -0.856,5.309 14.101,2.272 1.197,-7.432 -9.911,-10.311 -30.777,-4.96 -12.648,6.676 L 14.41,2.322 0,0 z"
             inkscape:connector-curvature="0"
             id="path522"
             style="fill:#f9b00f;fill-opacity:1;fill-rule:evenodd;stroke:none" /></g></g></g></g></svg>